<?xml version="1.0" encoding="UTF-8"?>
<svg version="1.1" viewBox="0 0 2048 1276" xmlns="http://www.w3.org/2000/svg">
<path transform="translate(0)" d="m0 0h2048v1276h-2048z" fill="#FDFDFD"/>
<path transform="translate(1787,75)" d="m0 0 11 1 12 6 7 7 5 10 2 9v10l-3 10-7 9-9 7-11 4h-13l-11-4-10-8-7-14-1-4v-11l4-13 6-8 9-7 8-3z" fill="#1B214A"/>
<path transform="translate(1891,75)" d="m0 0 11 1 8 3 9 7 7 11 3 13-2 13-6 11-7 7-12 6-5 1h-10l-11-4-9-6-6-8-4-10-1-5v-7l3-12 5-8 8-7 8-4z" fill="#14162F"/>
<path transform="translate(1888,1007)" d="m0 0h12l11 4 10 9 6 12 1 4v15l-4 11-9 10-12 6-5 1h-12l-9-3-9-6-7-9-4-9-1-5v-8l4-13 6-8 7-6 9-4z" fill="#1B224A"/>
<path transform="translate(1744,848)" d="m0 0h13l11 4 9 7 6 9 3 10v11l-3 10-6 9-8 7-12 5h-14l-10-4-6-4-8-9-5-12v-14l4-11 6-8 10-7z" fill="#1A2149"/>
<path transform="translate(1015,696)" d="m0 0h16l11 4 9 8 6 12 2 8v9l-3 10-8 11-8 6-11 4h-13l-11-4-10-9-5-8-3-8-1-8 2-11 6-10 8-8 10-5z" fill="#1A214A"/>
<path transform="translate(782,1013)" d="m0 0h12l12 4 9 7 5 8 3 10v12l-3 10-5 8-7 7-11 5-6 1h-9l-10-3-8-6-7-7-5-11-1-4v-9l4-13 6-9 8-6 8-3z" fill="#1A2149"/>
<path transform="translate(88,495)" d="m0 0h12l10 3 6 4 7 8 5 10 1 5v13l-4 11-7 9-10 6-8 3h-14l-10-4-8-6-6-8-4-10-1-4 1-13 4-9 4-6 8-7 9-4z" fill="#1A2149"/>
<path transform="translate(462,1090)" d="m0 0h8l9 2 10 6 7 9 4 11 1 11-3 12-5 8-7 7-9 5-9 2-12-1-12-6-8-8-5-10-2-8v-7l3-11 5-9 7-7 11-5z" fill="#141630"/>
<path transform="translate(569,1090)" d="m0 0 11 1 9 4 8 7 6 9 3 12-1 14-5 10-9 9-8 4-8 2h-12l-11-4-8-6-6-9-4-11v-12l3-9 5-8 7-7 11-5z" fill="#141630"/>
<path transform="translate(563,678)" d="m0 0h15l9 3 9 7 6 8 3 7 1 5v11l-3 10-8 11-10 6-10 3h-14l-9-3-10-9-5-8-3-10v-10l4-13 6-8 10-7z" fill="#1B224A"/>
<path transform="translate(784,145)" d="m0 0h7l11 3 9 6 8 9 3 7 1 5v11l-2 9-6 10-9 8-11 4-11 1-13-4-9-7-6-8-4-10-1-11 4-13 8-11 10-6z" fill="#141630"/>
<path transform="translate(494,109)" d="m0 0h11l12 4 8 6 6 9 3 9 1 9-2 12-6 10-9 8-9 4-4 1h-14l-10-4-9-7-6-10-3-10v-11l4-11 7-9 10-7z" fill="#1B214A"/>
<path transform="translate(1676,693)" d="m0 0h12l10 3 8 6 7 8 4 9 1 13-3 13-7 9-7 6-10 4-4 1h-12l-11-4-10-9-5-9-2-5-1-12 3-12 5-8 7-7 10-5z" fill="#14152F"/>
<path transform="translate(1316,230)" d="m0 0 11 2 10 5 7 7 5 10 2 9v7l-3 12-8 10-8 6-10 4h-16l-14-7-8-9-4-10-1-4v-11l4-12 6-8 7-6 10-4z" fill="#14162F"/>
<path transform="translate(1202,231)" d="m0 0h17l10 4 9 8 7 14 1 5v11l-4 11-9 10-9 6-12 3-11-1-12-6-6-5-6-10-3-8v-13l4-10 8-11 10-6z" fill="#14152E"/>
<path transform="translate(1951,397)" d="m0 0h15l12 5 8 7 6 12 1 4v16l-4 9-7 9-9 6-8 3-11 1-8-2-10-5-7-7-6-12-2-9v-7l4-11 6-8 9-7z" fill="#1A2149"/>
<path transform="translate(1288,827)" d="m0 0 11 1 12 6 7 7 5 10 2 9v9l-3 10-6 8-9 8-10 4h-16l-14-7-8-9-5-11-1-11 2-10 6-11 9-8 9-4z" fill="#14162F"/>
<path transform="translate(348,602)" d="m0 0h15l10 4 9 7 5 7 3 9 1 9-3 14-6 9-7 7-9 4-4 1h-16l-9-4-10-8-6-10-2-7v-12l3-10 6-9 8-7 7-3z" fill="#14162F"/>
<path transform="translate(1494,1027)" d="m0 0h14l9 3 10 8 6 9 3 10v10l-3 11-6 9-7 6-8 4-10 2-10-1-10-4-8-6-6-9-3-7-1-5v-8l3-11 6-9 8-7 8-4z" fill="#14162F"/>
<path transform="translate(242,602)" d="m0 0h18l12 6 7 7 6 12 1 4v14l-3 8-7 9-7 6-9 4-4 1h-14l-12-5-9-9-4-8-3-11 1-11 4-10 6-8 8-6z" fill="#14162F"/>
<path transform="translate(1097,231)" d="m0 0h16l10 4 8 6 6 9 3 9v16l-4 10-6 8-11 7-6 2h-15l-13-5-9-8-6-12-1-4v-14l5-12 8-9 12-6z" fill="#14162F"/>
<path transform="translate(566,1195)" d="m0 0h9l9 2 10 6 6 7 4 7 2 10-1 13-4 9-7 9-10 6-6 2-13 1-12-4-6-4-8-9-4-11-1-11 3-12 6-10 8-6 9-4z" fill="#141630"/>
<path transform="translate(672,1090)" d="m0 0 13 1 12 6 8 9 5 13 1 4v8l-3 10-6 9-8 7-9 4-6 1h-8l-9-2-10-6-7-7-5-11-1-4v-12l4-11 4-6 7-7 8-4z" fill="#141630"/>
<path transform="translate(87,929)" d="m0 0h15l10 4 7 5 7 10 3 9v16l-3 8-8 10-9 6-7 3-5 1h-9l-9-3-8-5-7-8-5-11-1-4v-11l3-10 6-9 7-6 8-4z" fill="#141630"/>
<path transform="translate(1631,260)" d="m0 0h19l10 4 8 7 6 12 1 5v15l-4 11-9 10-12 6-8 2-10-1-10-4-9-7-6-10-3-11v-7l4-14 7-9 10-7z" fill="#141630"/>
<path transform="translate(1182,827)" d="m0 0 12 1 10 4 6 5 6 9 3 8 1 13-3 12-8 11-9 6-8 3-9 1-10-2-10-5-7-7-6-12-1-4v-14l4-11 9-10 10-6z" fill="#141731"/>
<path transform="translate(1201,336)" d="m0 0h17l11 4 10 9 5 10 2 9v9l-4 11-6 8-7 6-9 4-4 1h-13l-12-5-8-7-6-9-3-8v-13l4-11 7-9 10-7z" fill="#14162F"/>
<path transform="translate(1019,157)" d="m0 0 13 1 12 5 8 8 5 11 2 14-2 10-5 9-9 8-11 5-9 2-9-1-12-6-8-9-6-12-1-4v-10l4-12 6-8 7-6 9-4z" fill="#14162F"/>
<path transform="translate(1150,1106)" d="m0 0h14l11 4 10 9 5 9 2 10-1 11-4 10-6 8-8 6-11 4h-14l-10-4-9-7-6-10-3-10v-10l5-13 9-10 8-5z" fill="#14152F"/>
<path transform="translate(645,18)" d="m0 0h13l11 4 9 8 6 12 1 6v11l-2 9-6 9-8 7-9 4-4 1h-14l-10-4-10-9-7-14-1-4v-11l4-11 6-8 10-7z" fill="#141630"/>
<path transform="translate(1301,1232)" d="m0 0h15l10 4 8 7 5 6 4 10 1 7v10h-72v-12l4-13 6-9 10-7z" fill="#1A2049"/>
<path transform="translate(755,666)" d="m0 0 7 1 3 11 5 4 9 6 9 10 11 10 7 8 10 9 17 16 15 16 11 11 8 7 8 8 7 8 132 132 2 3v7l-5-3-90-90-7-6-7-8-83-83-7-8-10-9-7-8-10-8-6-8-13-11-7-9-5-4-8-4-1-4z" fill="#0F0F1C"/>
<path transform="translate(1699,1151)" d="m0 0 7 1 9 10 7 8 5 4 17-17 9-6 7 2 1 1v6l-7 8-9 8-5 5-2 5 15 14 8 10v6l-8 3-5-2-18-18-4-3h-2l-6 8-10 10-9 6-4-1-2-4v-6l7-8 15-15-2-4-19-19-3-6 2-4z" fill="#1A2149"/>
<path transform="translate(800,304)" d="m0 0 5 1 8 7 15 15 5-2 21-21 5 1 5 5 1 4-16 15-7 7 1 4 10 11 9 11 2 2-1 5-5 4-5-1-8-7-13-13-5-1-9 10-8 7-6 5h-3l-4-5-4-2 2-4 10-9 9-9 2-3v-5l-10-10-7-8-5-5 2-4z" fill="#1A2149"/>
<path transform="translate(306,909)" d="m0 0 11 6 1 4-17 17-7 6 1 5 16 16 5 4 1 6-8 7-5-2-7-8-8-9-5-4-5 1-5 6-11 9-7 6-4-2-7-6 4-5 6-5 7-8 8-8-1-4-18-18-5-4 2-4 6-5 5 1 7 6 9 11 7 6 7-6 7-8 5-5z" fill="#1A2149"/>
<path transform="translate(1460,520)" d="m0 0 4 2 5 6-6 8-14 14-4 5h-2l6 7 13 13 7 6v2l-5 5-2 3-4-2-8-7-12-12-4-3-4 1-9 9-7 8-6 5-4-2-7-6 3-5 13-12 6-7 1-5-14-14-7-9 1-5 4-4h5l12 11 7 7 4 5 4-2 17-17z" fill="#1A2048"/>
<path transform="translate(562,447)" d="m0 0 4 2 22 22 5-2 9-9 8-7 6-6 3 1 2 4 5 4-2 4-12 11-12 12 8 7 12 13 8 6-1 2-5 2-6 5-8-7-7-7-8-7-3-2-4 1-20 20-4 1-8-7 1-4 12-11 7-8 4-4-2-4-22-22 2-4 5-4z" fill="#1A2049"/>
<path transform="translate(1896,731)" d="m0 0h8l8 7 12 14 4 1 14-14 8-7 1-1 7 1 4 3-1 5-8 9-8 7-6 6 1 4 14 14 7 9v5l-8 5-8-7-7-7-10-8-5 1-5 6-8 7-9 8-4-1-6-10 12-10 12-12-2-5-10-11-5-5-7-8z" fill="#1A2049"/>
<path transform="translate(593,181)" d="m0 0h6l8 7 14 14 4 1 11-12 11-9 1-1h6l4 6-1 4-23 23 2 4 23 23-1 4-7 5-7-4-16-16-3-4-4 2-17 16-6 5-4-1-6-6 1-4 9-8 7-8 7-7-3-5-11-11-7-6-2-4 1-5z" fill="#1A2048"/>
<path transform="translate(1442,848)" d="m0 0 5 1 22 22 4 2 15-16 8-7 6-1 4 5 1 5-11 12-12 12 2 4 15 16 6 8 1 3-5 3-7 1-8-8-7-8-6-7h-3l-21 21-7 4-4-6-5-3 5-6 8-7 5-6 8-7v-4l-13-13-7-6-3-1 3-11z" fill="#1A2049"/>
<path transform="translate(1811,850)" d="m0 0h6l7 6 7 8 10 9 3-1 7-8 8-9 7-5h5l4 6-1 5-21 21 1 4 16 16 5 8 1 4-3 3h-9l-22-22h-3l-7 9-11 10-7 4-4-1-4-3 1-5 9-10 7-8 7-7-6-7-10-11-5-5-1-2v-6z" fill="#1B2149"/>
<path transform="translate(1300,520)" d="m0 0 6 3 5 4 7 8 7 7 5 2 15-16 8-7 7 2 3 3-1 5-15 16-7 6 1 4 7 8 9 9 6 8-1 4-9 4-20-20-4-3-5 2-9 10-12 11h-4l-3-5-4-3 1-3 8-7 13-13 2-3-1-4-4-5-8-7-5-4-4-5 1-5 3-5z" fill="#1A2049"/>
<path transform="translate(116,32)" d="m0 0 7 4 9 10 11 11 4-1 7-8 7-7 9-7 5 1 4 6-2 4-15 15-6 7 1 4 22 22 1 3-4 2-4 4-4-1-12-11-9-9-4-2-11 12-13 13-3-1-5-5-3-4 25-25-2-5-12-11-11-8 7-12z" fill="#1A2048"/>
<path transform="translate(450,448)" d="m0 0 7 3 12 12 5 6 3 2 4-1 12-12 5-4 3-6 7 2 5 3 1 3-7 8-18 18 2 4 21 21 1 6-4 3-8-1-8-7-7-8v-2l-8-4-15 15-11 7-5-1-5-5 4-6 19-19 1-4-12-13-12-11 2-4 4-4z" fill="#1B2149"/>
<path transform="translate(338,448)" d="m0 0 6 2 8 7 7 8 5 6 3 1 6-5 19-19 5 1 6 6-1 4-8 7-13 13-3 4 1 3 8 7 15 15v3l-7 6-5-1-23-23-7 6-7 7-7 8-4 3-6-2-5-5 2-4 9-8 14-16-6-7-10-9-8-8 1-6z" fill="#1A2048"/>
<path transform="translate(65,181)" d="m0 0 7 4 19 19 5 1 3-1 2-4 18-18 4 1 5 5v4l-19 19-3 4 1 4 7 8 13 13 2 5-5 5-5 1-5-5-13-12-6-5h-4l-7 8-12 12-4 3-5-2-3-3-1-5 7-8 15-15-1-5-7-8-12-12-2-5z" fill="#1B214A"/>
<path transform="translate(1045,952)" d="m0 0 6 3 12 11 10 10 4 1 9-10 8-7 5-5 7 1 4 4-2 5-8 8h-2l-2 4-9 9 1 5 9 10 13 13-1 4-5 3-3 2-8-7-13-13-4-3-4 1-5 6-8 7-8 8-5 1-6-8v-3l3-3h2l2-4 8-8 8-7-2-5-15-15-7-8 1-3 4-4z" fill="#1A2149"/>
<path transform="translate(662,776)" d="m0 0 5 1 7 7 7 8 8 8 4-2 10-11 8-7 4-3h5l3 3 2 5-24 24 1 5 4 2 18 20-2 6-5 5-13-12-13-13-3-1-7 8-13 13-3 2-6-1-3-3-1-6 8-7 5-6 8-7 3-4-8-8-8-7-7-7-1-5 5-6z" fill="#1A2149"/>
<path transform="translate(939,1165)" d="m0 0 6 1 8 7 7 8 9 9 22-22 4-2 7 1 1 7-3 5-19 19-1 3 15 15 7 9 1 2v6h-9l-6-4-18-18-2-1-2 4-8 8-8 7-8 5h-6l-2-3 1-6 7-8 16-16-1-4-7-7-11-9-4-6 1-7z" fill="#1A2049"/>
<path transform="translate(1317,56)" d="m0 0 5 1 21 21 4 2 2-4 5-6 11-9 7-5 5 1 2 4v5l-21 21-2 4 8 7 12 13 3 5v6l-7 3-8-6-6-7-2-1v-2l-4-2-6-6-4 2-12 13-8 7-2 2-5-1-4-5 1-5 9-10 7-8 5-4 1-3-7-8-17-17 2-5z" fill="#1A2048"/>
<path transform="translate(994,365)" d="m0 0 5 1 22 22 4 1 23-23 3-1 6 5 1 3-7 8-16 17v3l20 20 4 5-2 4-4 4-4 1-13-12-10-10-4-3-11 12-9 9-4 3-9-3-1-4 6-8 5-6h2v-2l8-7 2-2-1-5-9-10-11-9-1-6z" fill="#1A2149"/>
<path transform="translate(826,20)" d="m0 0 7 1 7 6 9 11 7 5 12-12 8-7 5-4 7 1 2 4-1 5-22 22 2 5 7 7 7 8 6 6v8l-2 2h-5l-13-12-12-11-4 2-10 9-9 9-3 2-7-1-2-1v-6l4-6 11-12 7-7-6-7-9-11-6-5-2-4 1-5z" fill="#1A2049"/>
<path transform="translate(434,764)" d="m0 0 5 1 2 7 3 5-6 1-10 9-5 6-3 3 2 5 11 13 11 11-2 4-4 3-6-1-10-9-8-7-5-6-4 2-22 22-6-2-5-4 2-5 7-6 7-8 7-7 1-3-7-9-14-14-1-4 2-4 3-2h6l15 15 6 7h3l15-15z" fill="#1A2149"/>
<path transform="translate(92,1092)" d="m0 0 6 2 8 8 7 8 7 6 23-23 6 1 6 3-1 4-11 12-12 12v3l10 10 7 8 6 6-2 7-2 2-6-1-7-6-7-8-8-7-4-2-15 16-7 7-8-1-4-5 3-5 9-10 8-7 5-6-11-12-11-11-2-4v-4z" fill="#1A2149"/>
<path transform="translate(494,901)" d="m0 0 5 1 8 8 9 11 5 4 4-2 7-8 11-9 4-3h6l4 4-1 5-11 11-8 7-4 5 2 5 12 11 7 8 4 5-6 6h-5l-19-19-5-4v-2l-8 7-7 8-10 9-6 1-4-5 1-6 5-5 12-13 5-4-2-5-15-15-5-4-2-4 5-7z" fill="#1A2048"/>
<path transform="translate(226,448)" d="m0 0 5 1 8 7 12 13 6 5 2-4 13-13 5-6 5-3h4l4 5-1 6-15 15-6 5-1 5 9 9 7 8 7 7-1 6-3 3-5-1-11-9-14-14-8 6-7 8-7 7-5 3-4-2-6-7 15-14 8-7 2-2-1-4-7-8-12-13-3-4 1-5z" fill="#1B224A"/>
<path transform="translate(751,930)" d="m0 0 5 1 3 6-1 4-10 10-5 4-7 8 2 4 9 10 11 12 1 6-4 3h-6l-10-9-7-7-6-7-4 1-9 10-10 10-3 2h-5l-3-3v-6l7-8 11-11 4-6-7-8-11-10-4-7 1-6 2-2h6l8 7 9 10 5 5 4-1 11-11 8-7z" fill="#14152F"/>
<path transform="translate(1196,521)" d="m0 0 6 3 12 12 7 8h3l13-12 8-7 5-4 4 1 3 3 1 4-9 10-5 5-7 8-3 2 2 4 1 3 4 2 9 10 7 7-1 5-4 5-5-2-5-4-7-8-9-9-4-2-14 15-8 8-4 1-5-1-4-5 3-5 21-21 1-3-14-14-8-10-1-3 4-5z" fill="#1A2048"/>
<path transform="translate(2045,819)" d="m0 0h3v73l-16-5-9-5-6-7-4-8-2-6v-12l4-12 6-8 9-6 9-3z" fill="#14162F"/>
<path transform="translate(1213,696)" d="m0 0 6 1 4 2 7 8 9 9 6 4 2-4 7-9 11-9 4-2 5 1 2 2-1 6-9 10-12 12 2 5 9 9 11 14-1 5-4 3-5-2-11-9-7-7-7-5-17 17-6 4-4 1-5-5 2-5 7-9 13-12-2-4-9-11-8-8-2-6 1-5z" fill="#1A2149"/>
<path transform="translate(0,555)" d="m0 0 10 1 10 4 8 7 6 10 2 8v12l-3 10-6 8-8 7-13 4-6 1z" fill="#141730"/>
<path transform="translate(2044,555)" d="m0 0h4v73l-15-4-11-7-4-5-4-8-2-9v-7l3-11 6-10 9-7z" fill="#141630"/>
<path transform="translate(0,820)" d="m0 0h9l10 4 8 7 6 12 2 9v7l-4 13-7 8-6 5-8 4-10 1z" fill="#14162F"/>
<path transform="translate(1684,386)" d="m0 0 7 6 13 19 14 21 6 12-1 5-1 1h-7l-5-4-13-18-10-14-6-9-6 7-14 11-9 8-10 7-4 1-5-8 2-5 8-8 8-7 15-13 12-9z" fill="#1A2047"/>
<path transform="translate(1890,1101)" d="m0 0 7 1 8 9 14 19 10 13 5 9v7l-1 1h-6l-6-4-10-11-14-19-4-5v-2h-2l-1 4-9 11-11 13-9 10-4 3-5-1-3-2 1-7 9-13 14-18 11-13z" fill="#1A2149"/>
<path transform="translate(91,273)" d="m0 0 7 1 11 12 12 16 12 15 4 6-1 5-5 3h-6l-11-13-10-13-8-10-2-3h-2l-10 14-11 14-8 10-9 1-3-1 1-8 7-11 22-28 8-9z" fill="#1B224B"/>
<path transform="translate(277,989)" d="m0 0 4 2 10 12 12 17 10 15 5 11v5l-1 1-8-1-4-2-13-18-10-14-6-8v-2l-23 23h-2l-2 4-10 10-7 1-3-6 1-6 15-15 7-8 9-9 11-9z" fill="#1A2149"/>
<path transform="translate(178,120)" d="m0 0h9l38 7 25 6 1 4-1 9-8-1-48-9-4-1v20l-2 33-1 1h-12l-1-5 2-47z" fill="#1B224A"/>
<path transform="translate(324,297)" d="m0 0 5 1 2 1v5l-14 14-16 12-11 9 4 4 19 14 13 11 5 6-1 5-3 2-7-1-11-7-17-13-14-12-7-8 1-5 10-10 16-12 14-10z" fill="#1A2048"/>
<path transform="translate(785,1111)" d="m0 0 5 1 10 10 26 34 5 10v3l-6 2-7-2-10-12-13-17-7-10-11 14-11 13-8 10-3 3-4 1-7-6 5-10 9-11 10-13 11-13z" fill="#1B2149"/>
<path transform="translate(1021,446)" d="m0 0h5l9 9 14 19 10 13 7 12-1 5h-9l-8-7-10-13-11-14-3-4h-2l-6 8-12 14-8 10-5 6-7 1-3-2 1-7 9-14 10-13 10-14 7-7z" fill="#1B214A"/>
<path transform="translate(670,1103)" d="m0 0h11l8 4 7 8 2 6v12l-5 9-8 6-6 2h-7l-10-3-7-8-3-7-1-10 5-10 8-6z" fill="#FEFEFE"/>
<path transform="translate(1494,1040)" d="m0 0h13l9 5 4 5 3 7v13l-6 9-8 6-2 1h-15l-6-3-7-8-2-5v-12l3-7 5-6z" fill="#FEFEFE"/>
<path transform="translate(1565,48)" d="m0 0 6 1 10 11 11 14 11 13 7 11 1 6-1 2h-7l-8-7-8-8-11-14-8-9-2-1-2 5-8 11-10 13-12 12-7-1-2-4 4-8 16-23 12-16z" fill="#1A214A"/>
<path transform="translate(1723,561)" d="m0 0h8l22 4 32 8 10 4v3l-5 7-12-2-39-9-3-1-1 33-1 17-2 5-3 1h-7l-2-1v-22l2-46z" fill="#1B214A"/>
<path transform="translate(1177,841)" d="m0 0h15l8 4 4 5 3 9v9l-3 8-5 6-9 5h-10l-10-4-4-5-4-8-1-4v-9l4-8 7-6z" fill="#FEFEFE"/>
<path transform="translate(26,649)" d="m0 0 15 1 40 6 12 3v12l-16-2-38-5-1 56-6 2-7-1-1-10v-56z" fill="#1A2149"/>
<path transform="translate(1206,349)" d="m0 0h10l10 5 6 8 1 3v12l-4 8-8 7-7 3h-10l-10-5-6-8-2-12 3-9 7-8z" fill="#FEFEFE"/>
<path transform="translate(1021,170)" d="m0 0 10 1 9 6 5 7 1 4v13l-4 6-7 7-8 3h-9l-8-4-7-8-3-6-1-9 3-7 7-8 8-4z" fill="#FEFEFE"/>
<path transform="translate(1149,1119)" d="m0 0h14l8 4 6 7 2 5v11l-3 7-6 7-10 5h-8l-8-3-7-6-4-8-1-10 3-7 7-8z" fill="#FEFEFE"/>
<path transform="translate(563,1104)" d="m0 0h15l8 5 5 6 2 7-1 13-4 6-10 8-3 1h-10l-7-3-5-4-5-8-1-3v-13l6-9 7-5z" fill="#FEFEFE"/>
<path transform="translate(784,1026)" d="m0 0h9l9 4 6 7 2 5v14l-6 9-9 6-3 1h-8l-10-3-8-9-3-10 1-8 4-7 8-6z" fill="#FEFEFE"/>
<path transform="translate(90,942)" d="m0 0h11l8 4 6 8 2 7v9l-4 8-9 8-5 2h-12l-8-5-6-7-3-10 1-9 4-6 8-7z" fill="#FEFEFE"/>
<path transform="translate(1100,244)" d="m0 0h12l8 4 5 6 2 4 1 11-2 8-8 9-7 4h-12l-8-4-6-7-3-6-1-11 4-8 8-7z" fill="#FEFEFE"/>
<path transform="translate(1204,244)" d="m0 0h12l7 3 8 9 2 7v7l-3 8-7 8-9 4h-9l-10-4-6-8-3-10 1-9 6-9 8-5z" fill="#FEFEFE"/>
<path transform="translate(465,1103)" d="m0 0 10 2 6 4 5 6 2 7v7l-3 9-6 7-10 5h-10l-8-4-5-6-4-11v-9l4-8 7-6 5-2z" fill="#FEFEFE"/>
<path transform="translate(782,159)" d="m0 0h12l9 5 6 7 1 3v15l-6 9-10 6-3 1h-8l-8-3-5-4-5-8-1-4v-12l4-6 6-5z" fill="#FEFEFE"/>
<path transform="translate(349,615)" d="m0 0h13l10 6 5 8 1 10-2 9-7 8-10 5h-9l-8-3-5-5-5-9v-14l4-6 8-7z" fill="#FEFEFE"/>
<path transform="translate(249,614)" d="m0 0 12 2 7 5 5 10v13l-8 11-8 5-3 1h-10l-8-4-6-8-3-10 1-9 4-7 6-5 6-3z" fill="#FEFEFE"/>
<path transform="translate(645,31)" d="m0 0h11l9 4 6 7 2 6v10l-3 7-5 5-8 6-4 1h-8l-7-3-5-4-5-8-2-8 1-8 4-6 7-6z" fill="#FEFEFE"/>
<path transform="translate(1306,968)" d="m0 0 6 1 9 10 12 16 10 13 7 11 1 5-2 3-7-1-5-4-7-9-9-11-12-16-6 8-12 14-9 11-7 6-7 1-4-2 2-6 11-16 13-17 12-14z" fill="#14152F"/>
<path transform="translate(568,690)" d="m0 0 9 1 9 6 4 5 3 9v7l-3 9-7 6-6 3h-15l-8-5-4-5-3-8v-11l4-7 8-7z" fill="#FEFEFE"/>
<path transform="translate(1642,272)" d="m0 0 9 2 7 5 4 7 1 4v10l-3 8-8 7-7 3h-11l-10-5-5-8-2-8v-9l5-8 9-6z" fill="#FEFEFE"/>
<path transform="translate(564,1209)" d="m0 0h15l9 6 5 10v11l-4 8-7 7-6 3h-10l-9-3-5-4-5-10v-12l5-8 8-7z" fill="#FEFEFE"/>
<path transform="translate(1679,706)" d="m0 0h8l10 5 6 7 2 5v9l-3 9-7 7-8 4-8 1-9-3-6-5-4-8-1-5v-9l4-7 8-7z" fill="#FEFEFE"/>
<path transform="translate(834,441)" d="m0 0h9l1 3-3 31-4 33-1 3-12-1v-9l5-45-47 5h-8v-12l5-2 44-5z" fill="#1B214A"/>
<path transform="translate(1953,410)" d="m0 0h11l8 4 7 8 2 7-1 11-6 9-10 6-3 1h-7l-9-3-7-7-3-9v-12l6-9 9-5z" fill="#FEFEFE"/>
<path transform="translate(1888,89)" d="m0 0h11l8 4 6 7 2 7v10l-3 8-8 7-7 3h-10l-8-3-6-7-3-9v-11l4-7 7-6z" fill="#FEFEFE"/>
<path transform="translate(1284,841)" d="m0 0h14l6 4 6 8 2 5v12l-4 7-8 7-5 2h-12l-9-4-6-9-2-6v-9l4-8 8-7z" fill="#FEFEFE"/>
<path transform="translate(721,634)" d="m0 0h11l37 4 17 3 3 2-1 8-3 3-37-4-12-2-2-1 3 32 1 14 1 4-3 7-5 1-4-3-3-9-2-14-2-28v-16z" fill="#1A2048"/>
<path transform="translate(1560,688)" d="m0 0h7l8 4 17 14 13 10 9 8 2 3-1 6-7 7-25 20-16 10h-7l-2-2 1-7 12-11 14-10 9-8 1-5-5-5-16-13-12-9-5-5 1-5z" fill="#1B2149"/>
<path transform="translate(1311,244)" d="m0 0h11l6 3 7 7 2 4v16l-6 9-10 6-3 1h-9l-8-4-6-7-3-9v-9l3-7 5-5 6-4z" fill="#FEFEFE"/>
<path transform="translate(493,123)" d="m0 0h13l8 4 6 7 2 7v8l-2 7-7 8-8 4-7 1-8-2-6-4-6-8-2-8v-8l4-7 8-7z" fill="#FEFEFE"/>
<path transform="translate(1757,231)" d="m0 0h9l49 5 10 3 1 3-3 8h-13l-40-5 3 23 1 18v12l-3 2h-7l-3-5-5-44v-19z" fill="#1B214A"/>
<path transform="translate(1803,956)" d="m0 0h13l1 1v67l-5 1h-7l-1-19v-37l-49 6h-9l-3-4v-6l6-3 19-3z" fill="#151731"/>
<path transform="translate(1745,862)" d="m0 0h11l7 3 7 6 3 8v9l-4 8-6 7-7 4h-11l-9-4-5-5-3-6-1-5v-9l4-8 6-5z" fill="#FEFEFE"/>
<path transform="translate(91,509)" d="m0 0h11l7 4 6 9 1 3v14l-4 6-8 7-6 2-11-1-10-5-5-6-2-7v-8l3-7 7-7z" fill="#FEFEFE"/>
<path transform="translate(1018,710)" d="m0 0h11l7 3 5 4 4 6 1 3v12l-5 8-8 7-4 2h-12l-9-5-6-8-3-9 1-8 6-8 10-6z" fill="#FEFEFE"/>
<path transform="translate(1892,1020)" d="m0 0h7l8 4 5 6 3 7v11l-4 8-8 7-4 2h-12l-10-4-6-9-1-4v-13l6-8 5-4 5-2z" fill="#FEFEFE"/>
<path transform="translate(1132,11)" d="m0 0 5 1 14 9 19 14 11 9 8 8 1 4-8 7-14 10-14 11-15 10-7 1-3-4 1-5 7-6 14-11 15-12h2l1-4-13-11-13-10-9-7-3-7v-6z" fill="#1A2047"/>
<path transform="translate(1781,90)" d="m0 0h13l7 3 6 5 4 11-1 9-5 8-7 6-8 3-10-1-8-5-4-5-3-9v-8l3-8 5-5z" fill="#FEFEFE"/>
<path transform="translate(40,1089)" d="m0 0 7 6 3 3-2 5-10 9-10 11-3 3 4 5 19 19 1 3-5 8-6-1-20-20-3-2h-4l-6 8-5 3v-46l7 6 7 7 4-2 20-20z" fill="#14152F"/>
<path transform="translate(1273)" d="m0 0h69l-1 6-6 10-10 8-9 3-13 1-10-3-11-7-6-9-3-6z" fill="#14152E"/>
<path transform="translate(2008,182)" d="m0 0 7 3 9 9 7 9 5 3 3-1 7-8h2v39l-4-2-8-6-7 6-16 15-7 1-3-3v-6l9-10 6-5 7-8-1-5-11-10-7-8-4-6 2-4z" fill="#14152E"/>
<path transform="translate(1787,261)" d="m0 0h7l4 4 1 9 4 2 3 4 7 1 7 9 5 6 8 7 7 8 11 9 16 16 7 8 17 17 7 8 5 4 7 8 7 6 7 4 1 6-3 2-6-1-15-16-29-29-7-8-16-17-10-9-9-9-6-5-6-8-2-5-6-2-6-4-4-7-13-8-2-4 1-5z" fill="#14152E"/>
<path transform="translate(1304,1245)" d="m0 0h8l8 3 6 5 4 8 1 15h-45l-1-2v-11l4-8 5-5 6-4z" fill="#FEFEFE"/>
<path transform="translate(1543,1237)" d="m0 0 6 5 8 10 7 8 5 3 9-10 11-11 3-2h8l3 3-1 5-7 8-10 10-2 3h-2l-2 4-2 3h-18l-7-9-9-10-7-6-3-6 1-4z" fill="#1A2149"/>
<path transform="translate(1039,715)" d="m0 0 4 2v2l7-1 3 1 4 7 2 2v9l-3 10-7 10h-6l-8 6-13 4-10-2-10-7-8-11-2-3-1-8 4-1 3-8h1l3 13 6 9 9 5h12l8-5 6-7 2-4v-12l-3-6z" fill="#141631"/>
<path transform="translate(751,930)" d="m0 0 5 1 3 6-1 4-10 10-5 4-7 8 2 4 9 10 3 4 2 4 1 4-8-6-3-2-1-3-11-7v-2l-5-2-5-3 1-2h2v-5l-4-2-5-4-10-4h-3l-2 2-6-8-1-6 3-4h6l8 7 9 10 5 5 4-1 11-11 8-7z" fill="#1B2149"/>
<path transform="translate(1556)" d="m0 0h26l13 13 6 8 1 8-3 3-6-1-10-9-13-13-4-1-14 15-7 7-6 1-5-4 1-6 13-14z" fill="#1A2047"/>
<path transform="translate(854,304)" d="m0 0 5 1 5 5 1 4-16 15-7 7 1 4 5 5 2 6 5 5 7 9-1 2-10-10-4-5-2 1-3-1-1-4h-6l-4-2-4-10-1-2-3-1-1 3-4-2-1-3-4-2-3-3v-2l-2-1-1-3 1-2h2v-3l4 1 8 7 4 3 4 1 10-9 9-9z" fill="#29375E"/>
<path transform="translate(1182,827)" d="m0 0 12 1 6 2v2l-8 3-8 1-9 6-9 7-4 8v9l3 9-1 4 5 5v2h-2l-1 2-5-1 5 5 1 2-5-2-8-9-4-9-1-4v-14l4-11 9-10 10-6z" fill="#14162F"/>
<path transform="translate(1744,848)" d="m0 0h13l1 2-10 3-3 3-7 3v2l1 4-6 4-4 6-1 3v9l3 10 2 4 4 2 1 1 1 8h-5v-3l-2 4-5-1-8-9-5-12v-14l4-11 6-8 10-7z" fill="#141630"/>
<path transform="translate(1909,80)" d="m0 0 5 2 5 4 7 11 3 13-2 13-6 11-5 1h-4v2l-5 3-4 4-8 2-5-1 2-3h3l-1-3-5-2v-1l8-2 10-5 5-6 2-6v-10l-3-9-3-3-2-8-1-3z" fill="#14162F"/>
<path transform="translate(2046,831)" d="m0 0h2v47l-8-1-8-4-6-7-2-5v-13l4-8 8-6z" fill="#FEFEFE"/>
<path transform="translate(119,182)" d="m0 0 4 1 5 5v4l-19 19-3 4 1 4 7 8 5 6v2l8 8-1 2-5-5-6-5h-2v-2h-2v-2l-4-1-1-5-7-1-3-2v-2l-2-1-3-3v-2l-3-1h2l-1-3h-3l-11-11v-6l5 2 5 3 8 7 6-1 2-4z" fill="#29375E"/>
<path transform="translate(71,701)" d="m0 0h5l5 5 3 8 5 4 9 3 8 10 11 11 7 8 17 16 10 11 6 8 8 6 7 3 1 2v6l-6-1-8-6-14-14-16-17-21-21-7-8-10-8-5-5-9-8-7-5-1-4h2z" fill="#0F0F1C"/>
<path transform="translate(3,567)" d="m0 0 9 3 7 6 4 8v14l-5 8-6 5-7 3h-5v-46z" fill="#FEFEFE"/>
<path transform="translate(2046,567)" d="m0 0h2v47l-8-1-8-4-5-7-2-7v-9l3-7 7-7 8-4z" fill="#FEFEFE"/>
<path transform="translate(0,831)" d="m0 0 9 2 8 5 5 10 1 11-3 8-9 8-8 4h-3z" fill="#FEFEFE"/>
<path transform="translate(225,452)" d="m0 0 6 2 5 7 1 2 5 3 5 8 4 6 3 1v4l-2 2v2l3 1-1 4-6 5-7 8-7 7-5 3-4-2-6-7 15-14 8-7 2-2-1-4-7-8-12-13-3-4v-3z" fill="#141630"/>
<path transform="translate(563,678)" d="m0 0h15l9 3 9 7 6 8 3 7 1 5v11l-1-4h-2l-4-9h-2l-2 3h-2l-1 2-3-9-4-5-8-5-9-1-9 3-6 4-2-4 1-3 2-4 2-5 3-3z" fill="#1A2149"/>
<path transform="translate(554,681)" d="m0 0 4 1-2 2-2 4v4l-2 1 1 6-4 5-1 3v11l4 10 6 5v2l-3 1-1 4 1 4-4 1-8-7-6-9-3-10v-10l4-13 6-8z" fill="#141630"/>
<path transform="translate(1674,396)" d="m0 0h2l-1 4h2l2 8-10 9-9 7-8 7-10 7-4 1-5-8 2-5 8-8 8-7 12-10h2l1 2z" fill="#1A2048"/>
<path transform="translate(1772,890)" d="m0 0h3l3 3v2h2l1-3h4l-3 9-7 9-8 6-10 4h-14l-10-4-4-3h3l1-4 2-1-1 4 4-1v-7l7 2h11l9-6z" fill="#1B214A"/>
<path transform="translate(1025,447)" d="m0 0 4 2 9 10 14 19 9 12 5 9-1 5h-9l-8-7-10-13-11-14-2-4h4l-4-7 3-1 6 7 2-2 9 12-2-4-12-16z" fill="#1A2048"/>
<path transform="translate(115,543)" d="m0 0 1 2-2 4 2 2h2v-2l3-1 2 4-5 6-10 6-8 3h-14l-10-4-8-6-5-6 2-2v2l5 2 3 1v-5l4-2 10 5 11 1 7-3 7-6z" fill="#1A2149"/>
<path transform="translate(1191,526)" d="m0 0h3l3 5 6 5 5 2 3 6v2h2l2 5 4 2v7l-6-1v2h4l1 4-1 4-2 4-15 15-4 1-5-1-4-5 3-5 21-21 1-3-14-14-8-10-1-3z" fill="#14162F"/>
<path transform="translate(1097,231)" d="m0 0h16l10 4 3 3 2 6 1 4h-11l-6-3h-12l-7 3-7 6-4 5-4-2-1 5-4-1 2-6 4-6 6-8v-2-3z" fill="#1A2048"/>
<path transform="translate(815,1028)" d="m0 0h3l4 9 1 5v12l-3 10-5 8h-4l-10 6-5 2-4-1h2v-2l-3 1v-2h-3l1-2 5-3 11-8 4-7v-14l-2-5v-3h3v-2l5-1z" fill="#141630"/>
<path transform="translate(1206,868)" d="m0 0 1 3h2v2l2 1 1 4 2 6-5 6-9 6-8 3-9 1-10-2-7-3-2-4-3-2v-2h5l3-1-6-7 2-1 1-2 4 6 10 4h10l10-6 4-5z" fill="#1A214A"/>
<path transform="translate(1875,1116)" d="m0 0 5 1-3 6-6 8h2l11-12 4-3h4l1 3h-2l-1 4-9 11-11 13-9 10-4 3-5-1-3-2 1-7 9-13 14-18z" fill="#29375E"/>
<path transform="translate(592,1203)" d="m0 0 4 2 7 10 3 12-1 13-4 9-5 7-6-1-6 2-5-1-1-4 6-4 6-7 2-5v-11l-3-9 4-5z" fill="#14162E"/>
<path transform="translate(282,994)" d="m0 0h2l14 19 12 17 8 16v5l-1 1-8-1-4-2-13-18-15-21v-2l4 2 3 3-7-10v-2l5 2 2 2h3l7 9-1 2 2 4 5 7 4 2 5 6-5-10-8-10-12-17z" fill="#1A2149"/>
<path transform="translate(755,666)" d="m0 0 7 1 3 11 5 4 9 6 9 10 11 10 7 8 4 4 2 4 55 55v2l4 2 2 4-4-2-65-65-4-2-10-8-6-8-13-11-7-9-5-4-8-4-1-4z" fill="#141733"/>
<path transform="translate(1329,233)" d="m0 0 8 4 7 7 5 10 2 9v7h-1l-2-7-2-4v-3h-2l-2-4-5-1-3 3-7-7-5-2h-11l-9 3-5 5-3 4-2 4-2-4 1-4 1 1 1-7 2-2-1-3h3v-2l3-2h3l1-2 18-2z" fill="#1B2149"/>
<path transform="translate(1565,48)" d="m0 0 6 1 10 11 11 14 11 13 7 11 1 6-1 2h-7l-8-7-8-8-9-12 1-2 9 10-6-9-6-8h3l9 10 7 9h3l3 1-9-12-1-3h-2l-8-10h-1-3l-3-2 2 5-8-6v-2l-6-1-5-2 6-7z" fill="#141630"/>
<path transform="translate(1676,693)" d="m0 0h12l6 2-3 2h-4v2h8v2l5 1 1 2-7 1h-15v2l-8 3-8 7-4 5h-2l-1 4-1-10-5-1 1-5 7-8 8-6z" fill="#14152E"/>
<path transform="translate(803,719)" d="m0 0 7 6 61 61 5 2 7 7 7 8 74 74 2 1v2h2v2h2l7 8 7 7-1 2-53-53-2-1v-2l-3 1-11-10-7-8-83-83-7-8-10-9-4-5z" fill="#100F1E"/>
<path transform="translate(520,117)" d="m0 0 5 2 6 9 3 9 1 9-2 12-6 10-9 8h-8l-3-3v-2l4 1v-2h2v2l6-1-1-1-3-2 2-4 4-4 2-5h-2v-14l-2-10 2-5 4-1z" fill="#14162F"/>
<path transform="translate(1649,714)" d="m0 0h3v2h3l1 6 4-1v14l-4-3v-3h-4l1 9 5 10 6 5 13 5 9-1 8-1 4-1 3-3 6-2 2 3-8 7-10 4-4 1h-12l-11-4-10-9-5-9-2-5-1-12z" fill="#1B224A"/>
<path transform="translate(1301,1232)" d="m0 0h15l10 4 8 7 5 6 4 10 1 7v10h-13l-2-15-4-8-2-3 7 1 2-5-2-4h-2l-5-5-7-1h-9l-13 3-10 7h-2v2l-5 4 1-5 6-7 10-6z" fill="#14152F"/>
<path transform="translate(1806,970)" d="m0 0 6 2v4h2l1-4h1l1 52-5 1h-7v-54z" fill="#13142D"/>
<path transform="translate(134,69)" d="m0 0h4l-1 4v-2h-2l2 4 2 1 2-4 9 4-2 1v2h3l1 4h-3l-6-4-11 12-13 13-3-1-5-5-3-4 24-24z" fill="#1B224A"/>
<path transform="translate(1305,981)" d="m0 0 4 2-3 8-11 12-8 10-10 11-4 2-8-1-1-3 10-16 2-3 4 1-3 5 5-5 8-10h2v-2l10-8z" fill="#1B224A"/>
<path transform="translate(32,1113)" d="m0 0 4 1-7 8-4 4 4 5 19 19 1 3-5 8-6-1-23-23 4-1v3l4 2h2l-1-5-1-4-3-3-3-2 2-3h2v-5l4-3h3z" fill="#1B224A"/>
<path transform="translate(1911,1013)" d="m0 0 4 1 8 9 4 9 1 4v15l-1 4h-5v2h-2l-2 4h-3l-1-4 1-3h-2l-1 2 1-5 1-3v-11l-5-10v-4l5-2-2-5z" fill="#141630"/>
<path transform="translate(1045,204)" d="m0 0h2l-3 9 5 5-8 6-12 5-10 1-10-3-7-4-3-6 2-2 8 4 9-3h9l9-4 7-7z" fill="#1A2149"/>
<path transform="translate(1201,336)" d="m0 0h17l11 4 5 5 1 3-1 2h-2v6l1 4-2 2-6-8-9-4h-10l-10 4-3 2-1-7 1-4 9-4 5-1 1-3h-7z" fill="#1B2149"/>
<path transform="translate(1287)" d="m0 0h43l-2 6-7 6-10 4-11-1-8-5-5-7z" fill="#FEFEFE"/>
<path transform="translate(2029,217)" d="m0 0 1 2 4 2 4 5h8l1 2-1 5 2 3-4-2-8-6-7 6-16 15-7 1-3-3v-6l9-10 5-4 5-1 2-4 5-1z" fill="#141630"/>
<path transform="translate(766,1063)" d="m0 0 2 1v2l5 1 6 3 5 1h10l-4 4-2 1 6 1v2l9-3 9-5 1 3-7 6-9 4-6 1h-9l-10-3-8-6-7-7-2-5 4 1v2h2v2l4 2v-4z" fill="#1B224A"/>
<path transform="translate(1039,715)" d="m0 0 4 2v2l7-1 3 1 4 7 2 2v9l-3 10-7 10h-11l-1-6 5-5 3-8v-12l-3-6z" fill="#141730"/>
<path transform="translate(1481,886)" d="m0 0 5 1 15 16 6 8 1 3-5 3-7 1-8-8-7-8-6-7-3-3 5-4z" fill="#14162F"/>
<path transform="translate(1442,848)" d="m0 0 5 1 22 22 5 4-7 6-1 4-4 1-1-5-13-13-7-6-3-1 3-11z" fill="#13152E"/>
<path transform="translate(258,483)" d="m0 0 2 1 3 2v-2l5 1 8 8 7 8 7 7-1 6-3 3-5-1-11-9-9-9 1-3-6-6-1-4z" fill="#141630"/>
<path transform="translate(1762,88)" d="m0 0 2 1 1 4v1l1 3h3l-3 10v8l1 8h-3l1 7-1 2-3-1-5-2-4-11v-11l4-13 5-5z" fill="#141631"/>
<path transform="translate(784,145)" d="m0 0h7l11 3 9 6 3 5 2 4-1 3h-5v2l-5-1-5-4-6-3h-15l6-7 2-1-3-2v2l-5 1-4 2-2-2 5-4-3-2z" fill="#1A2149"/>
<path transform="translate(486,484)" d="m0 0 4 1 22 22 1 6-4 3-8-1-8-7-7-8v-2l-4-2-2-3h2l1-5z" fill="#141630"/>
<path transform="translate(1556)" d="m0 0h12v2l-5 1-2 11-16 16-6 1-5-4 1-6 13-14z" fill="#1B214A"/>
<path transform="translate(117,505)" d="m0 0 4 2 5 8 3 10v13l-4 11-1 2-6-2v2l-4 1-1-4 2-4-2-1 2-4v-14l-2-5v-3l10 1-4-9z" fill="#151731"/>
<path transform="translate(854,304)" d="m0 0 5 1 5 5 1 4-16 15-4 2-3-1h-5l-5 1-3-3 12-11 8-8z" fill="#1A2049"/>
<path transform="translate(64,512)" d="m0 0 1 2 8-1v4l3-1-2 4-3 7v8l3 8 2 5-2 1v5h-4l-8-5-4-10-1-4 1-13h3l2 3v3l3-1 3-6h2v-3l-6 4-3-1z" fill="#141731"/>
<path transform="translate(678,812)" d="m0 0h1l1 5 3 2 1 7-16 16-3 2-6-1-3-3-1-6 8-7 5-6 8-7z" fill="#1A2049"/>
<path transform="translate(1734,586)" d="m0 0h1v22l-1 17-2 5-3 1h-7l-2-1v-22h1l1 10 2-4 2-18 2-5h3v-2h2z" fill="#2A385F"/>
<path transform="translate(520,154)" d="m0 0 3 1-2 6-6 7 5 2-1 2-3 1-3-1v-2h-2v2l-4-1v2l4 2 5 1-4 3-7 2h-14l-9-3 1-2-4-4 1-2h6l2-1 17-2 8-4 6-7z" fill="#1A2148"/>
<path transform="translate(1787,261)" d="m0 0h7l4 4 1 9 4 2 3 4 7 1 7 9 4 6 2 4 6 5 6 7-3 3-11-10-6-8-2-5-6-2-6-4-4-7-13-8-2-4 1-5z" fill="#1B2245"/>
<path transform="translate(593,181)" d="m0 0h6l8 7 9 9 5 6h-2l-1 2h-7l-4-3 1 1v2l5 2 2 1-1 2-6-2-7-6-10-9-2-4 1-5z" fill="#1B214A"/>
<path transform="translate(797,1134)" d="m0 0 4 1v2h2l8 11 7 9 4 1 3 3-8-13-1-3h2l9 13 4 8v3l-6 2-7-2-10-12-13-17-1-4h2z" fill="#151833"/>
<path transform="translate(1855,332)" d="m0 0h2l9 11 9 7 6 8 8 7 6 7 4-2 15 15 10 6 1 6-3 2-6-1-15-16-29-29-7-8-10-11z" fill="#121324"/>
<path transform="translate(698,1135)" d="m0 0h1v6l-2 7 5 1-5 6-12 6-6 1h-8l-9-2-4-3h4l-2-4 5-1 13 1 9-2 1-6 5-5z" fill="#1B214A"/>
<path transform="translate(762,1033)" d="m0 0h2l2 6-2 7 1 9 6 12-3-1-1-2-1 4 1 5-6-4v-2h-2v-2l-5-2-3-9v-9l2-4h2l2-4 5-2z" fill="#141630"/>
<path transform="translate(1120,1136)" d="m0 0 2 4 2 11 6 10 4 4v2l4 1 1-2h6l20 5 5-2 4-1v-2l7-5 3 1-2 4-9 7-11 4h-14l-10-4-9-7-6-10-3-10z" fill="#1B224B"/>
<path transform="translate(1462,521)" d="m0 0 6 5 1 3-11 12-9 9-4 5h-2l6 8 6 7 3 3v2l-4-2-9-11v-2h-2v-2l-5-1-2-7 5-5 8-7h2l2-4 3-1 2-4 3-4z" fill="#29375E"/>
<path transform="translate(1888,1007)" d="m0 0h12l5 2-3 1h-5l-7 3-3 2-7 1-7 9-4 6-2 7h-2v-2h-7l1-8 6-9 8-7 9-4z" fill="#141630"/>
<path transform="translate(1811,850)" d="m0 0h6l7 6 7 8 10 9v3l-7 3-2-2 1-6-5 1-2 1v-2h-2v-2h-7l-5-4-4-6v-6z" fill="#1B224A"/>
<path transform="translate(306,909)" d="m0 0 11 6 1 4-17 17-3-1v-2l-7-2-1-1-2-1 9-10 5-5z" fill="#1B224A"/>
<path transform="translate(329,1217)" d="m0 0 6 4v3l3-1 5 4 6 12 6 3h2l8 13 5 4 7 2 5 6-4 2-7-1-7-10-15-8v-3l2-3-7-8-9-2-3-5-2-8z" fill="#1C2349"/>
<path transform="translate(1045,952)" d="m0 0 6 3 12 11 10 10v5l-5 1-10-5-3-4-5-3-1-4-2-1v-2l-4 2-2-2-2-1 1-3 4-4z" fill="#28365D"/>
<path transform="translate(811,347)" d="m0 0 1 2 6 1 2-1 3 7-16 15-3 2h-3l-4-5-4-2 2-4 10-9z" fill="#28365D"/>
<path transform="translate(721,634)" d="m0 0h11l37 4 17 3 3 2v4l-6 1-12-3-10-3-22-2h-6l-2 1-10 1-1-7z" fill="#141730"/>
<path transform="translate(1021,446)" d="m0 0h5l2 4 4 5 15 20h-3l-8-11-2 2-6-7-2 1 4 7-5-1-3-7-4 1 1 3-1 2h-2v2l-5 2-2-4h-2l-1 2-1-4 8-10z" fill="#29375E"/>
<path transform="translate(577,1196)" d="m0 0 7 1 9 5 1 9-4 5-4-2-7-4h-15l-7 2 1-7 2-2 13-2 5-1z" fill="#1A2149"/>
<path transform="translate(126,52)" d="m0 0 4 2 6 8 3 1 4 6 8 4 3 2 3 6v2l5 2 2 2 5 1 3 2 2 6-2 6-4-1-12-11-5-5-1-4 1-2h-3l-2-4-5-2-2 3-4-2v-3h2l-2-6-6-6z" fill="#13142D"/>
<path transform="translate(1050,365)" d="m0 0 5 3 3 5-7 8-3 3-5 1-7 6-1-2-5 1v2l-3 1-4-2h2l2-4 21-21z" fill="#14162F"/>
<path transform="translate(13,184)" d="m0 0 7 1 4 4-2 4-10 9-7 8-5 3v-18l5-2 2-4z" fill="#14162F"/>
<path transform="translate(2046,197)" d="m0 0h2v38l-3-2 1-6h-8l-7-8v-3l3-2 1-4h2l-1-3 5-5z" fill="#1D254E"/>
<path transform="translate(0,220)" d="m0 0 4 2 7 7 7 8 6 6-1 4-3 3h-5l-10-9-5-5z" fill="#13152D"/>
<path transform="translate(753,931)" d="m0 0 4 1 2 5-1 4-10 10-5 4-3 4-5-2-2-2h-4v-3h2l2-4 4-2 7-6 3-5 4-3z" fill="#14152E"/>
<path transform="translate(732,643)" d="m0 0h24l10 2 7 2 10 1 6-1-2 5-2 2-37-4-12-2-2-1v3h-3v-6z" fill="#29375E"/>
<path transform="translate(722,671)" d="m0 0h1v7l6-2 5 6 3-3 1 14 1 4-3 7-5 1-4-3-3-9-2-14z" fill="#29375E"/>
<path transform="translate(538,944)" d="m0 0 4 2 15 16 1 2-6 6h-5l-14-14v-2h3l-4-4-5-4 4-1 1 3h5z" fill="#151731"/>
<path transform="translate(143,1093)" d="m0 0 6 1 6 3-1 4-11 12h-4v-2l-6 1-9 6 1-5 4-2 1-5z" fill="#1A2149"/>
<path transform="translate(2035,1090)" d="m0 0h2l8 11 3 1v17l-5-2-10-10-5-4v-6l5-4z" fill="#151732"/>
<path transform="translate(1984,409)" d="m0 0h2l6 12 1 4v16l-4 9-4 4v-6h-4l2-8 4-1-2-7-5-3-2-10h8l1 4 2 1-1-6-4-6z" fill="#14162F"/>
<path transform="translate(593,1110)" d="m0 0 8 4v-3h2l3 12-1 14-3 3h-5v-2h-2l-1-2-2-25z" fill="#0E0C16"/>
<path transform="translate(2047,1132)" d="m0 0h1v17l-9 11-4 1-7-7 1-5 10-9z" fill="#14162F"/>
<path transform="translate(1862,853)" d="m0 0 2 1-12 12 4-3 2 1-9 10-5 3-1 2-3 1-1 3h-3v5l-7 3-2-2 3-5-12-14 1-2 5 1v2h2l1 1 3-1h3v6l2 1 5-3 12-12 7-8z" fill="#14162F"/>
<path transform="translate(1882,133)" d="m0 0 13 2-4 2 4 2v3l-4 2 4 1 9-3 5-5h3v-2l4-1 3 2-8 7-9 4-5 1h-10l-9-3-2-3 1-6 5-1z" fill="#1A2049"/>
<path transform="translate(1578,62)" d="m0 0 7 6 4 5v2h2l11 15-1 2-2-2-2 1-5-5-8-9-6-7 2 4 8 11v3l-20-20-1-5 5 1 3 2-1-3 4 1z" fill="#1A2149"/>
<path transform="translate(277,989)" d="m0 0 4 2 2 3 2 4 12 17 8 10 5 10-1 2-7-9-4-2-7-10 1-2-2-4-4-5h-3l-6-4 6 9 2 5-5-4-1-2h-3v-2l-3 1-1-2 2-3h2v-2h-2l2-4 5 2-4-5-5 1v-3z" fill="#29365D"/>
<path transform="translate(648,181)" d="m0 0h6l4 6-1 4-22 22v-3l2-3h2l1-4 2-4-1-4-2-2 8-7-6 4-9 8-1 2h-2l-1 3-2-1 9-10z" fill="#1A2149"/>
<path transform="translate(1868,1126)" d="m0 0 2 1-4 5-2 5-2 8h2l1 2 6-3-2 4-7 8-5 4-5-1-3-2 1-7 9-13z" fill="#1B224B"/>
<path transform="translate(277,957)" d="m0 0 1 2-4 5-11 9-7 6-4-2-7-6 3-4 4 1 4-5 4-3h6l2 1z" fill="#1B2149"/>
<path transform="translate(1236,282)" d="m0 0h6l-2 5-9 9-10 5-9 2-11-1-11-5 2-3 8-2v3l2 1v1l5 1h10l3-2 5-5 5-3 5-4z" fill="#1B224B"/>
<path transform="translate(291,928)" d="m0 0 1 3 6 2 1 4-5 5 1 5 10 10-1 4-5-2-2-1v-2l-2-1-2-6-5-1-4-2-2-3v-6l4-6z" fill="#28365D"/>
<path transform="translate(755,666)" d="m0 0 7 1 3 11 5 4 9 6 8 9-2 2-4 1-10-9-7-9-5-4-8-4-1-4z" fill="#1D244C"/>
<path transform="translate(373,486)" d="m0 0 6 5v5h2l5 6v2l4 2h4l1 5 3 1-2 4-4 1-8-7-17-17 1-4z" fill="#13152E"/>
<path transform="translate(646,185)" d="m0 0 2 1-8 7 3 3-1 6-3 5h-2l-2 4-1 3-4 2h-6l-1-4 1-3 1-6 3-1 1-2h2l2-4 10-9z" fill="#29375E"/>
<path transform="translate(470,144)" d="m0 0 2 2 4 12 5 7 5 3 1 3h-7l1 4 3 1-3 1-9-7-6-10-2-5 1-6 3-4 1 1z" fill="#14162F"/>
<path transform="translate(1213,696)" d="m0 0 6 1 4 2 7 8 4 4v2l-5-2-3-4v-2l-4-1-2-3-2 1 2 6 1 4h3v2l5 2 3 3 1 5 2 5 1 2-4-1-10-11-7-8-4-5-1-8z" fill="#151834"/>
<path transform="translate(282,448)" d="m0 0h4l4 5-1 6-10 10-2-1v-7l-7 4h-2l-2 5-5 1-2 1 2-4 11-11 5-6z" fill="#1B2148"/>
<path transform="translate(1668,412)" d="m0 0 4 1-5 5-11 10-14 10-4 1-5-8 1-2 4-3 2 1-2 3 6-2 13-11h2l1-3 3 1z" fill="#28355C"/>
<path transform="translate(1565,48)" d="m0 0 6 1 10 11 11 14 5 6h-3l-3-3v-2h-2l-8-10h-1-3l-3-2 2 5-8-6v-2l-6-1-5-2 6-7z" fill="#151732"/>
<path transform="translate(1210,237)" d="m0 0h10l6 2 2 2 1 6 3 5-1 4-5-5-6-5-4-1h-12l-8 4-6 5 1-6 8-6 7-4z" fill="#1B224B"/>
<path transform="translate(598,704)" d="m0 0 3 3 2 8h2v9l-5 10-3 3-2-1v-3l-6 1-1 2 1-4 3-3 1-3h2 1v-6l-2-2-1-9h2l2-4z" fill="#13152E"/>
<path transform="translate(119,182)" d="m0 0 4 1 5 5v4l-16 16h-2l2-5 3-5-5-3-8 7-2 1 2-4z" fill="#1B224A"/>
<path transform="translate(613,465)" d="m0 0 1 2-3 5-11 11 8 7 12 13 8 6-1 2h-6l-11-12-4-3-4-5-1-3-5-1-1-6 13-12z" fill="#29375E"/>
<path transform="translate(271,946)" d="m0 0 5 1 4 5-3 6-10 4-4-1-4 1-3 1-2 4-4 2-1-3 6-5 7-8 7-6z" fill="#2A385F"/>
<path transform="translate(1899,76)" d="m0 0 9 2 2 2-4 5 2 4v2 3l-9-4h-11l-7 2-1-2 3-5 11-4 5-1z" fill="#1B224A"/>
<path transform="translate(1200,568)" d="m0 0 3 2-1 7h2l8-2-6 7-8 7h-6l-5-6 3-5z" fill="#1C234C"/>
<path transform="translate(268,486)" d="m0 0 7 6 9 10 6 6-1 6-3 2-3-1-4-7-11-8-2-3 2-2 4-1 1-2-6-1-1-3z" fill="#1A2048"/>
<path transform="translate(1250,521)" d="m0 0 4 1 3 3 1 4-4 5-8 1-6 2-5 3h-2v2l-5 4-3-1 7-7 5-6 8-7z" fill="#151731"/>
<path transform="translate(1746,963)" d="m0 0 3 1v2l11-1 14 5 4 2-23 3h-9l-3-4v-6z" fill="#1B224B"/>
<path transform="translate(1404,521)" d="m0 0h5l12 11 7 7 2 7-5-2-11-7v-2h-2v-2l-4-2-7-6z" fill="#27345B"/>
<path transform="translate(534,1120)" d="m0 0 2 4 4 15 9 12 10 6 3 1h8l9-2 6 2-2 2-8 2h-12l-11-4-8-6-6-9-4-11z" fill="#1D244D"/>
<path transform="translate(553,1248)" d="m0 0 8 4 5 1h12l2 3 9-1 3-1 3 3-9 6-4 1-3-1v-2l-3-1-15-2-7-4v-3h-2z" fill="#1A214A"/>
<path transform="translate(501,448)" d="m0 0 7 2 5 3 1 3-7 8-4 4h-2v-4l-5 1v-2l-3-1 2-5 4-5z" fill="#14162F"/>
<path transform="translate(494,109)" d="m0 0h7v2l-16 6-5 4-3 5-4 5v3l-4 1-3 5-1 5h-1v-10l5-10 6-7 11-7z" fill="#151732"/>
<path transform="translate(1652,729)" d="m0 0h4v3l3 1 7 13 1 3v3l4 2 5 2 10 1-4 2-9-1-12-6-6-7-4-10z" fill="#13142D"/>
<path transform="translate(1212,556)" d="m0 0 3 1v2h-2v2h4l1 4-1 4-2 4-5 3-8 3-1-3 1-6v-4z" fill="#141630"/>
<path transform="translate(377,485)" d="m0 0 6 4 19 19v3l-4 2-5-3v-4l-2-1-1 2-9-9v-2h-2l-1-5-4-4z" fill="#1A2148"/>
<path transform="translate(104,932)" d="m0 0 5 1 5 4 2 3v3l-10 2-5-2-11-1-2-1 2-4 3-2 9-2z" fill="#1A2149"/>
<path transform="translate(23,874)" d="m0 0 5 1-6 7-8 5-8 3h-6v-11h10 3l4-2h3v-2z" fill="#1A2149"/>
<path transform="translate(1197,832)" d="m0 0 5 1 5 8-2 3h-8l-5-2h-17l4-4 5-3 10-2z" fill="#1B214A"/>
<path transform="translate(896,810)" d="m0 0 7 6 61 61 2 1v2h2v2h2l7 8 7 7-1 2-53-53-2-1v-2l-3 1-6-5v-3l-5-6-18-18z" fill="#141632"/>
<path transform="translate(1565,60)" d="m0 0h3l1 3-1 4h-2l-2 5-8 11-10 13-4-1 9-14 3-7 9-11z" fill="#28355C"/>
<path transform="translate(1662,317)" d="m0 0 4 2-4 5-12 6-8 2-10-1-8-3 1-2h14l11-2 9-3v-2z" fill="#1B214A"/>
<path transform="translate(1803,956)" d="m0 0h13l-4 1v2h-2l1 4-8 3-5-1-7 1-5-1v-5l3-3z" fill="#1A214A"/>
<path transform="translate(551,904)" d="m0 0 4 1 2 2-1 5-11 11-7 6h-2l1-5 4-6 1-6 4-4v-2l5-1z" fill="#151731"/>
<path transform="translate(1128,288)" d="m0 0 4 2-5 5-8 5-6 2h-15l-13-5-3-3 4-1 1 1 7 1 7 2 11 1h4l1-2h2l1-2h2v-2z" fill="#1B224A"/>
<path transform="translate(251,607)" d="m0 0h7l2 4 1 5-12-1-9 3-6 4-2 1 1-9 10-5z" fill="#1B214A"/>
<path transform="translate(1862,1051)" d="m0 0 5 1 5 9v2l4 2 1 5v4l-5-1-6-5-5-7-1-6h2z" fill="#13142D"/>
<path transform="translate(434,764)" d="m0 0 5 1 2 7 3 5-6 1-5 4-5-1-3 3h-5v-3-1l9-2 2 1-1-3h-3l1-5z" fill="#14162F"/>
<path transform="translate(1017,702)" d="m0 0h8l3 8-10 1-11 6-4 1-1-3 4-6 9-6z" fill="#29375E"/>
<path transform="translate(377,628)" d="m0 0 6 3 3 7 3 3v8l-3 7h-2l-1-9-5 2-1-1z" fill="#0E0C16"/>
<path transform="translate(1680,394)" d="m0 0 3 1 5 8 2 7 9 13 1 4-6-5-5-5-7-10-1-2-3 1-1-6-3 1 2-4z" fill="#29365D"/>
<path transform="translate(1867,338)" d="m0 0 7 6 17 17 7 8-2 4-13-13-5-4-3-4v-2l-4-2-6-7v-2z" fill="#161936"/>
<path transform="translate(784,698)" d="m0 0 5 1 10 9 7 8 4 4-1 3-4-2-5-3-10-8-6-8z" fill="#151832"/>
<path transform="translate(951,1190)" d="m0 0h7l9 5-1 6-4 2v2l-5 2-2 2-4 6-4 1-9 8v-3l20-20-1-4z" fill="#13142C"/>
<path transform="translate(616,447)" d="m0 0 3 1v5h-2v3l-5 5-14 11-3-1 2-4 4-6 10-9z" fill="#13152D"/>
<path transform="translate(1301,1232)" d="m0 0h15l10 4-3 1-7-1h-9l-13 3-10 7h-2v2l-5 4 1-5 6-7 10-6z" fill="#151731"/>
<path transform="translate(683,806)" d="m0 0 4 2 2 4 5 2 1 7-3-1 10 10h-3l-8-8-3-1-3 4h-2l-1-6-3-2v-9h2l4 4-3-5z" fill="#141630"/>
<path transform="translate(1694,695)" d="m0 0 7 3 4 4v4h-3v2l-2 1 4 7-2 2-6-7-9-4-8-1 4-2h16l1-1-5-2v-2l-4 1-4-1v-2z" fill="#1B224A"/>
<path transform="translate(215,629)" d="m0 0 2 1 2 15 6 12 5 6 4 1 7 1v2l-4 1 1 3-6-2-8-7-6-8-4-14z" fill="#1C234B"/>
<path transform="translate(135,1110)" d="m0 0 4 1 2 4-6 7-5 5v1h-5l-3-9-1-2 3-1h2z" fill="#29375E"/>
<path transform="translate(926,843)" d="m0 0h2v2l4 2 9 9v2l4 2 14 14v2l4 2 19 19-2 2-54-54z" fill="#0E0C17"/>
<path transform="translate(306,364)" d="m0 0 6 2 6 3v2h2v2h4l3 2v6l-7-1-11-7-4-3z" fill="#141630"/>
<path transform="translate(1703,741)" d="m0 0h2l-2 5-9 6-7 4-1 1h-10l-5-2-6-3 2-4 7 3 8 1 10-3 8-7z" fill="#1B224B"/>
<path transform="translate(234,494)" d="m0 0h2v2l-8 7v3l5 1 6-1v3l-8 7-4 1-8-8 4-5 8-7z" fill="#1B2248"/>
<path transform="translate(1783,980)" d="m0 0h8l2 1v6l-4 6-6 1-4-4v-7z" fill="#161A37"/>
<path transform="translate(1816,961)" d="m0 0h1v58h-1l-1-46-1 3h-2l-2-3-4-2-1 35h-1v-37l1-2 10-1z" fill="#242E55"/>
<path transform="translate(1362,722)" d="m0 0h5l2 2v12l-2 1h-8l-2-1 1-10z" fill="#1D213F"/>
<path transform="translate(784,1152)" d="m0 0h7l3 4v6l-3 3-9-1-3-3 1-5z" fill="#161A36"/>
<path transform="translate(71,701)" d="m0 0h5l5 5 3 8 5 4 3 2-1 2-7-2-11-9-4-4v-2h2z" fill="#151731"/>
<path transform="translate(1583,1056)" d="m0 0h8l2 4-1 10h-10l-1-1v-11z" fill="#151731"/>
<path transform="translate(997,754)" d="m0 0 11 7 4 3 11 2 12-4 8-6 5 1-5 5-10 5-4 1h-13l-11-4-9-8z" fill="#29375E"/>
<path transform="translate(360,606)" d="m0 0h6l1 1 1 11-6-2h-13l-5 1 1-3 7-4v-2z" fill="#1B224B"/>
<path transform="translate(275,461)" d="m0 0h2l1 7-2 4-5 4-8 1 1-2h-5l-1-2 4-4h4l2-4 6-3z" fill="#141631"/>
<path transform="translate(1921,776)" d="m0 0 1 3-4 5-8 7-6 6h-6l-1-3 6-2 3-5-6 1 1-4 6-5 2 4-1 2 7-3 4-5z" fill="#151731"/>
<path transform="translate(1338,360)" d="m0 0h7l2 3v7l-7 5h-3l-3-7v-5z" fill="#151832"/>
<path transform="translate(1247,729)" d="m0 0 3 1 6 6 7 5 8 11 3 4 2-1-1 5-5-5v-2h-2l-3-3h-3v-2l-4-2-5-4-5-9v-2l-2-1z" fill="#29375E"/>
<path transform="translate(91,364)" d="m0 0 7 2 2 2-1 7-4 4-6-2-2-2v-9z" fill="#161833"/>
<path transform="translate(1752,595)" d="m0 0 9 3 2 2v7l-3 3h-7l-3-5 1-9z" fill="#1C244D"/>
<path transform="translate(784,1203)" d="m0 0 7 1 4 3v5l-3 3h-9l-3-3-1-4z" fill="#151731"/>
<path transform="translate(828,446)" d="m0 0 5 2-2 4-4 2v2l-16 1-3-3 5-4z" fill="#29365D"/>
<path transform="translate(1729,1033)" d="m0 0 5 1 4 3v6l-4 4-4 1-5-4-1-6z" fill="#14162F"/>
<path transform="translate(1498,849)" d="m0 0 5 1 3 4-1 3h-2l-2 4-6 3h-2l-2 4h-2l1-4 5-6 1-2-8 7-6 5 2-4 11-11 2-1-1-2z" fill="#2A385F"/>
<path transform="translate(91,314)" d="m0 0h7l3 4v6l-2 2h-8l-4-2-1-4 3-5z" fill="#161933"/>
<path transform="translate(204,150)" d="m0 0 8 1 3 4v6l-6 3-6-1-1-9z" fill="#1C234B"/>
<path transform="translate(1737,1188)" d="m0 0 14 12 8 11 2-1v6h-3l-2-2h2v-2h-2l-5-7-5-1-9-8-2-6z" fill="#29375E"/>
<path transform="translate(1305,1009)" d="m0 0h7l1 2v10l-2 3-8-1-1-1v-9z" fill="#1D244D"/>
<path transform="translate(2046,197)" d="m0 0h2v20l-4 2-6-8 1-6z" fill="#191E44"/>
<path transform="translate(1539,722)" d="m0 0h8l1 4-1 9-2 2h-7l-1-1v-12z" fill="#1F274F"/>
<path transform="translate(90,339)" d="m0 0 8 1 2 2v7l-2 3h-9l-2-4v-7z" fill="#111224"/>
<path transform="translate(1020,517)" d="m0 0h6l4 3-1 7-4 4-7-2-1-1v-9z" fill="#1C234C"/>
<path transform="translate(1020,491)" d="m0 0h6l4 4v6l-3 3h-8l-2-2v-7l1-3z" fill="#161935"/>
<path transform="translate(1663,473)" d="m0 0 10 3-1 4-4 5-4 2-4-1-2-3v-7z" fill="#1C234C"/>
<path transform="translate(785,79)" d="m0 0 6 1 3 4-1 7-2 2-8-1-2-3v-7z" fill="#10101D"/>
<path transform="translate(1080,998)" d="m0 0 5 1 6 5-1 3-4-2 3 3 5 2 2 1v2l4 1v2l4 1v4l-3 2-8-7-10-10v-3l-3-3z" fill="#141630"/>
<path transform="translate(512,43)" d="m0 0 6 2 1 2v9l-1 1-10-1-2-2 1-6z" fill="#13142C"/>
<path transform="translate(782,1178)" d="m0 0h7l5 3v6l-3 3h-8l-3-5 1-6z" fill="#151831"/>
<path transform="translate(715,777)" d="m0 0h5l2 2-1 5-2 3-7 2-8 1-4 1 13-13z" fill="#14162F"/>
<path transform="translate(1813,641)" d="m0 0 8 1 3 3-1 10-10-2-2-1 1-9z" fill="#161934"/>
<path transform="translate(606,502)" d="m0 0 4 1 5 4v-2l4 2 4 5-7 6-8-7-4-4v-3h2z" fill="#141630"/>
<path transform="translate(757,332)" d="m0 0 6 1 2 4v7l-2 2h-8l-2-3v-7z" fill="#1C244C"/>
<path transform="translate(372,332)" d="m0 0h6l3 3v8l-6 3-5-1-1-2v-9z" fill="#151834"/>
<path transform="translate(1107,47)" d="m0 0h7l3 3v8l-3 2h-10l2-12z" fill="#1C234B"/>
<path transform="translate(1386,722)" d="m0 0h9l1 2-3 13-1 1h-7v-14z" fill="#161834"/>
<path transform="translate(1514,722)" d="m0 0h6l2 2v12l-1 1h-8l-1-1v-12z" fill="#13152C"/>
<path transform="translate(90,467)" d="m0 0h6l4 3-1 8-3 2-5-1-5-5v-5z" fill="#161935"/>
<path transform="translate(1635,1056)" d="m0 0 7 1 2 3v6l-3 4h-8l-1-7 2-6z" fill="#151730"/>
<path transform="translate(1413,722)" d="m0 0h5l2 2v11l-5 2h-5l-1-1v-7l3-6z" fill="#1C244B"/>
<path transform="translate(696,581)" d="m0 0 7 1 4 2-1 3-10 8-4-2-3-7z" fill="#28365D"/>
<path transform="translate(786,3)" d="m0 0 6 2 2 3v5l-3 3h-7l-3-2-1-7 3-3z" fill="#0F0E1B"/>
<path transform="translate(266,1010)" d="m0 0 4 2-6 7-11 11h-5l1-4 4-4 3-5 5-4z" fill="#27345C"/>
<path transform="translate(606,671)" d="m0 0h6l2 2v6l-5 5-7-2-3-3 2-4z" fill="#151832"/>
<path transform="translate(1676,424)" d="m0 0h6l3 3-1 7-3 4h-7l-1-2v-9z" fill="#141630"/>
<path transform="translate(1303,1036)" d="m0 0h8l3 4-1 8-1 1h-6l-5-4 1-8z" fill="#1E264F"/>
<path transform="translate(656,331)" d="m0 0 5 1 1 2v9l-4 2h-6l-2-4 1-7z" fill="#161934"/>
<path transform="translate(785,29)" d="m0 0 6 1 3 3v6l-2 3h-7l-4-4v-6z" fill="#0F0E1B"/>
<path transform="translate(425,331)" d="m0 0 6 2 1 10-3 1-1-2-2 3h-5l-2-4 1-7z" fill="#171B38"/>
<path transform="translate(346,331)" d="m0 0 7 1 1 1v12l-1 1h-7l-2-1v-12z" fill="#14172F"/>
<path transform="translate(1888,19)" d="m0 0 8 1 2 3-1 8-1 1h-7l-4-4v-6z" fill="#151831"/>
<path transform="translate(785,1228)" d="m0 0 5 1 4 3-1 6-4 3-7-1-2-3v-5z" fill="#151833"/>
<path transform="translate(1565,722)" d="m0 0h6l3 4-1 8-4 3h-5l-1-4v-8z" fill="#1C234A"/>
<path transform="translate(1566,547)" d="m0 0 6 1 1 2v7l-2 3-6 1-4-3v-7l2-3z" fill="#151731"/>
<path transform="translate(1907,379)" d="m0 0 7 6 10 6 1 6-3 2-6-1-3-7-8-9 2-1z" fill="#161935"/>
<path transform="translate(1890,1142)" d="m0 0 6 1 2 2v8l-1 1h-10l-3-3 2-6z" fill="#1B224B"/>
<path transform="translate(288,1134)" d="m0 0 5 1 2 3v6l-5 3-7-1-2-7 5-4z" fill="#151832"/>
<path transform="translate(279,1110)" d="m0 0 7 1 2 3v6l-5 3-5-1-4-7 2-4z" fill="#1D254B"/>
<path transform="translate(1747,1016)" d="m0 0 8 1 3 2-1 4-7 6-5-1-1-1v-9z" fill="#151731"/>
<path transform="translate(1489,722)" d="m0 0h8l1 2-3 13h-8v-14z" fill="#1A2045"/>
<path transform="translate(1864,655)" d="m0 0h6l4 4-2 7-3 2h-6l-2-2v-7l1-3z" fill="#151731"/>
<path transform="translate(1771,614)" d="m0 0 6 1 4 6v8l-11-3-2-2 1-6z" fill="#171A35"/>
<path transform="translate(1312,363)" d="m0 0 6 2 2 2v7l-4 4-5-1-3-6 1-6z" fill="#161A35"/>
<path transform="translate(1524,236)" d="m0 0 5 1 6 2-6 8-3 3-5-2-3-3 1-4z" fill="#1F2750"/>
<path transform="translate(317,209)" d="m0 0 6 1 1 1v10l-1 1h-8l-4-2 1-5 3-5z" fill="#14152C"/>
<path transform="translate(1566,117)" d="m0 0 6 1 2 2-1 7-3 2-9-1-2-5 5-5z" fill="#171B36"/>
<path transform="translate(785,105)" d="m0 0 6 1 3 4-1 6-5 2-6-1-2-5 2-5z" fill="#151831"/>
<path transform="translate(459,32)" d="m0 0h6l4 4v6l-3 4-7-2-3-4 2-7z" fill="#121327"/>
<path transform="translate(1866,850)" d="m0 0h5l4 6-1 5-13 13-3-1 9-12-1-5-1-4z" fill="#151732"/>
<path transform="translate(1334,722)" d="m0 0h8l1 1-1 13-1 1h-7l-1-4v-10z" fill="#14152E"/>
<path transform="translate(1890,654)" d="m0 0 6 2 2 5v6l-3 2-8-1v-11z" fill="#151832"/>
<path transform="translate(1514,548)" d="m0 0h5l2 2v11l-1 1h-8l-2-2 1-9z" fill="#1B2249"/>
<path transform="translate(90,441)" d="m0 0 7 1 3 3-1 7-3 2h-6l-2-1-1-7z" fill="#161A35"/>
<path transform="translate(88,416)" d="m0 0h8l3 3v6l-5 5-5-3-2-2-1-6z" fill="#151731"/>
<path transform="translate(314,1197)" d="m0 0 3 1 2 6h6l4 2 1 7-1 4-7-3-5-5-2-9z" fill="#161833"/>
<path transform="translate(1888,1168)" d="m0 0h6l4 4-1 7-2 2h-7l-2-2v-9z" fill="#171A36"/>
<path transform="translate(1710,1052)" d="m0 0h6l4 4v5l-5 5-5-2-2-2-1-7z" fill="#101020"/>
<path transform="translate(1464,722)" d="m0 0 5 1 2 3v9l-1 2h-9v-11z" fill="#1C234C"/>
<path transform="translate(1591,541)" d="m0 0 7 1 1 3-5 9-2 2-4-1-2-5v-6z" fill="#13142B"/>
<path transform="translate(577,331)" d="m0 0 5 1 3 4v7l-1 2h-9l-1-1v-10z" fill="#15172F"/>
<path transform="translate(1567,91)" d="m0 0 6 1 2 3-1 7-4 2-6-1-2-2v-7z" fill="#161935"/>
<path transform="translate(1059,47)" d="m0 0 6 1 1 1v8l-4 4h-6l-2-1 2-11z" fill="#1C234A"/>
<path transform="translate(957,47)" d="m0 0h7v9l-2 4-6 1-3-1v-9l1-3z" fill="#171B39"/>
<path transform="translate(35,1147)" d="m0 0 5 1 4 4v9l-6-1-10-10v-2z" fill="#141630"/>
<path transform="translate(272,1059)" d="m0 0 7 1 2 3-1 7-2 2-7-1-3-4v-5z" fill="#171A37"/>
<path transform="translate(1305,1060)" d="m0 0 5 1 4 4-1 6-2 2h-7l-3-2v-6l2-4z" fill="#151831"/>
<path transform="translate(344,792)" d="m0 0 6 1 2 2v6l-4 4-7-1-2-7 2-4z" fill="#161832"/>
<path transform="translate(1311,722)" d="m0 0h5l2 2-1 8v3l-5 2-5-1 1-11z" fill="#171B38"/>
<path transform="translate(1019,645)" d="m0 0h8l2 2v7l-2 4-8-1-2-4v-6z" fill="#181C3D"/>
<path transform="translate(1362,354)" d="m0 0h6l2 3 1 8-3 3h-7l-2-9z" fill="#11101F"/>
<path transform="translate(604,332)" d="m0 0h5l3 4-1 7h-3v2h-7l-2-5 1-5z" fill="#151731"/>
<path transform="translate(1546,190)" d="m0 0 9 3 2 1-1 4-4 4-5 1-5-3v-6z" fill="#1B2247"/>
<path transform="translate(980,47)" d="m0 0 7 1 2 2-1 9-3 2h-6l-2-10z" fill="#151832"/>
<path transform="translate(436,22)" d="m0 0 8 3 2 2v9l-9-1-3-2v-8z" fill="#14152D"/>
<path transform="translate(1763,999)" d="m0 0h7l5 3v5l-3 3h-6l-5-3-1-6z" fill="#1A2046"/>
<path transform="translate(1634,515)" d="m0 0 10 2-4 8-7 4-3-1-1-2v-6z" fill="#171A36"/>
<path transform="translate(1815,289)" d="m0 0 5 1 4 6 2 4 6 5 6 7-3 3-11-10-6-8-2-5-2-1z" fill="#1B224A"/>
<path transform="translate(1556,166)" d="m0 0 6 2 2 2v5l-5 4h-7l-2-4 4-8z" fill="#1D254D"/>
<path transform="translate(486,39)" d="m0 0 7 2 1 1-1 9-2 2-6-1-3-2v-7z" fill="#14152C"/>
<path transform="translate(274,1084)" d="m0 0 7 2 2 2-1 7-4 2-5-1-4-5 1-4z" fill="#1B2249"/>
<path transform="translate(272,1034)" d="m0 0h5l4 4v6l-5 3-6-1-2-4 1-5z" fill="#121323"/>
<path transform="translate(1617,529)" d="m0 0 3 1 3 2-2 6-7 5h-4l-2-4 1-5 5-4z" fill="#151832"/>
<path transform="translate(805,472)" d="m0 0h6l1 5-3 8-5 1-4-2-1-5 3-5z" fill="#1A2044"/>
<path transform="translate(1330,1262)" d="m0 0 7 6 7-2v10h-13l-1-5z" fill="#1B224A"/>
<path transform="translate(317,792)" d="m0 0 7 1 2 2-1 8-2 2h-7l-2-3v-7z" fill="#151730"/>
<path transform="translate(266,791)" d="m0 0 5 1 3 3 1 7-3 3-7-1-2-4v-6z" fill="#151730"/>
<path transform="translate(1437,722)" d="m0 0h6l2 1v12l-1 2h-8v-14z" fill="#12132B"/>
<path transform="translate(1917,651)" d="m0 0 6 2 1 8-5 5h-5l-2-4 2-9z" fill="#14172F"/>
<path transform="translate(627,331)" d="m0 0 6 1 2 1 1 9-2 3h-8l-1-9z" fill="#151831"/>
<path transform="translate(526,331)" d="m0 0 5 1 2 2 1 9-2 3h-8v-14z" fill="#15172F"/>
<path transform="translate(1562,142)" d="m0 0 7 1 2 3-3 6-2 2h-7l-2-2v-7z" fill="#151833"/>
<path transform="translate(1661,1057)" d="m0 0h9l-1 11-2 2h-7l-1-1v-10z" fill="#141730"/>
<path transform="translate(1561,1056)" d="m0 0h5l1 1v13h-6l-4-2-1-2v-7z" fill="#161934"/>
<path transform="translate(1232,732)" d="m0 0 2 1 3 3-1 5h-3l-1 2-5 4-5 2-3 1 1-6h2l1-5 4-2z" fill="#13142C"/>
<path transform="translate(1020,542)" d="m0 0 7 1 3 3-2 7-2 2-7-1-2-4 1-7z" fill="#1C234A"/>
<path transform="translate(753,526)" d="m0 0 4 1 2 3-1 4-5 5-3 2-2-5-7 1 2-4z" fill="#212950"/>
<path transform="translate(476,331)" d="m0 0 5 2 2 5v5l-2 2h-9v-10z" fill="#151833"/>
<path transform="translate(370,206)" d="m0 0 5 2-1 10-4 3-5-1-1-2v-7l3-4z" fill="#100F1C"/>
<path transform="translate(244,183)" d="m0 0 4 1 4 4v7l-2 3h-6l-3-3v-6z" fill="#121327"/>
<path transform="translate(1686,1056)" d="m0 0 7 1 2 2v8l-2 2h-8l-1-2v-9z" fill="#14162F"/>
<path transform="translate(52,683)" d="m0 0 10 1 4 5 1 5-10 1-5-5z" fill="#161936"/>
<path transform="translate(679,598)" d="m0 0h5l3 6-5 7h-2v-2l-6 2-3-4z" fill="#161934"/>
<path transform="translate(562,459)" d="m0 0 6 4v2l4 2 1 3 4 2 5 8-1 4-3-1-2-4-16-16 2-2z" fill="#141731"/>
<path transform="translate(552,332)" d="m0 0h7l1 1-1 9-2 3-5 1-3-3v-9z" fill="#151833"/>
<path transform="translate(500,332)" d="m0 0h8l1 1-1 8-2 4-7 1-1-2v-9z" fill="#161934"/>
<path transform="translate(398,331)" d="m0 0 6 2 2 4-1 7-1 1h-8l-1-1v-10z" fill="#151730"/>
<path transform="translate(322,332)" d="m0 0h7l1 1v8l-4 4h-6l-1-1v-9z" fill="#151730"/>
<path transform="translate(415,189)" d="m0 0 7 1 1 1-1 7-3 5-5 1-2-4v-9z" fill="#14162F"/>
<path transform="translate(785,54)" d="m0 0 5 1 3 3-1 7-2 2h-6l-3-3-1-5z" fill="#100F1C"/>
<path transform="translate(785,1253)" d="m0 0 5 1 4 5-2 6-1 1h-7l-3-3 1-7z" fill="#10101D"/>
<path transform="translate(1964,635)" d="m0 0 6 1 2 2v6l-4 4-7-1-1-1v-7z" fill="#0F0D19"/>
<path transform="translate(1007,48)" d="m0 0h7l2 1-1 8-5 3h-6l-1-5 2-6z" fill="#151832"/>
<path transform="translate(329,1217)" d="m0 0 6 4v3l3-1 5 4 2 4v4l-10-1-3-5-2-8z" fill="#10101E"/>
<path transform="translate(624,653)" d="m0 0 7 1 2 1-1 5-8 7-4-4-1-5z" fill="#13142A"/>
<path transform="translate(643,635)" d="m0 0 5 1 2 2v5l-3 3-7 1-5-4 2-4 3-3z" fill="#14152F"/>
<path transform="translate(223,169)" d="m0 0 5 1 4 4-1 8-3 1-7-3-2-3z" fill="#15172F"/>
<path transform="translate(1324,74)" d="m0 0h5l2 2h4l2 2 1 6 3 1-1 3h-2v3h-2v-2h-2l-7-8-4-4z" fill="#13142D"/>
<path transform="translate(411,12)" d="m0 0 6 1 6 4 1 4-5 5-6-2-2-3z" fill="#0F0F1C"/>
<path transform="translate(1887,1220)" d="m0 0h7l4 4-2 6-2 2h-6l-3-4 1-7z" fill="#11111F"/>
<path transform="translate(1020,617)" d="m0 0 7 3 2 2-1 6-3 5-5-1-2-8v-5z" fill="#171A37"/>
<path transform="translate(1650,497)" d="m0 0 9 1-1 6-3 3-6 1-5-4 1-5z" fill="#161933"/>
<path transform="translate(1837,650)" d="m0 0h6l4 4-1 9-8-1-3-3 1-7z" fill="#141731"/>
<path transform="translate(1021,593)" d="m0 0 7 1 1 1-1 9-4 3-5-1-1-3v-7z" fill="#161A36"/>
<path transform="translate(1538,548)" d="m0 0 7 1 2 5v7l-1 1h-8l-2-10z" fill="#161833"/>
<path transform="translate(1672,450)" d="m0 0 6 1 2 1v6l-5 3h-9v-6z" fill="#161A36"/>
<path transform="translate(1232,377)" d="m0 0 2 2-1 7-4 5-8 5-4 3h-3l-1 2-3-1v-4l-3-1 10-2 8-5 6-8z" fill="#1E264E"/>
<path transform="translate(705,332)" d="m0 0h5l3 5v6l-2 2h-8l-1-2v-8z" fill="#14162F"/>
<path transform="translate(731,332)" d="m0 0h6l2 1v7l-2 5h-7l-2-4v-6z" fill="#171A37"/>
<path transform="translate(1495,275)" d="m0 0h2l1 3 4 1-2 5-5 5-3 2-6-6v-2l6-4z" fill="#212A51"/>
<path transform="translate(1890,1244)" d="m0 0 7 2 1 5-2 4-7 2-3-2-1-8z" fill="#161832"/>
<path transform="translate(1886,1194)" d="m0 0h8l4 2-1 7-3 2h-6l-3-3v-7z" fill="#151833"/>
<path transform="translate(1019,671)" d="m0 0h8l3 3-2 8-4 1-6-2-1-2v-7z" fill="#151731"/>
<path transform="translate(91,390)" d="m0 0 7 2 2 2-1 6-3 3-6-1-3-5 1-5z" fill="#161934"/>
<path transform="translate(1390,347)" d="m0 0 5 2 1 7-3 3-6 1-4-3 1-6 3-3z" fill="#10101D"/>
<path transform="translate(1787,261)" d="m0 0h7l4 4v8l-3-1-5 1-4-4-1-5z" fill="#1B2249"/>
<path transform="translate(1031,47)" d="m0 0h9v11l-1 3h-8z" fill="#161935"/>
<path transform="translate(1778,875)" d="m0 0 3 1 2 9 1 2-1 2h2l-1 4h-3l-1 2h-2v-2l-3-1v-2l-2-1 1-5 2-1z" fill="#13142C"/>
<path transform="translate(216,792)" d="m0 0 6 1 1 1v8l-5 3h-5l-2-4 3-8z" fill="#14162C"/>
<path transform="translate(866,72)" d="m0 0 4 2 5 2v-1h5l4 6 3 1v2h2l-2 4h-5l-13-12z" fill="#151730"/>
<path transform="translate(974,1208)" d="m0 0 4 2 3 5 4 2 5 1v4l3 3-5-2-7-4 3 3 7 4 1 5-4-2-18-18v-2l4 1z" fill="#141630"/>
<path transform="translate(1305,1086)" d="m0 0 5 1 4 4-2 6-2 2h-6l-2-2v-8z" fill="#151731"/>
<path transform="translate(306,964)" d="m0 0h7l4 5-1 5-7 5v-6l-4-1-2-4z" fill="#28355B"/>
<path transform="translate(291,792)" d="m0 0h8v12l-5 2-5-5v-7z" fill="#14152E"/>
<path transform="translate(1793,628)" d="m0 0 5 2 3 4v8l-6 1-4-2-1-7z" fill="#171A35"/>
<path transform="translate(449,332)" d="m0 0h6l2 2v7l-2 4-6 1-2-1v-12z" fill="#13142A"/>
<path transform="translate(1540,214)" d="m0 0 5 2-1 7-3 3h-6l-4-4 1-4 4-3z" fill="#161A36"/>
<path transform="translate(342,210)" d="m0 0 6 1 2 2v7l-3 3h-6l-2-4v-6z" fill="#10101E"/>
<path transform="translate(267,195)" d="m0 0 4 1 3 5v7l-1 1h-8l-2-2 1-7z" fill="#121325"/>
<path transform="translate(538,46)" d="m0 0 5 2 2 9-1 3-10-1v-10z" fill="#151730"/>
<path transform="translate(660,617)" d="m0 0 10 3-2 4-8 6-4-1-1-6 3-5z" fill="#171A36"/>
<path transform="translate(785,491)" d="m0 0h8l1 1v7l-4 4h-6l-2-4 1-6z" fill="#181C3B"/>
<path transform="translate(1411,337)" d="m0 0h6l3 2-1 5-6 5-4 1-2-2v-6z" fill="#0F0F1C"/>
<path transform="translate(1435,325)" d="m0 0h6l2 1-1 5-4 4-7 3-2-2v-6z" fill="#161833"/>
<path transform="translate(292,204)" d="m0 0 6 3 1 4-2 7-4 1-4-3-1-9z" fill="#151730"/>
<path transform="translate(930,47)" d="m0 0 8 1 1 3-2 7-1 1h-8l-1-1v-8z" fill="#151730"/>
<path transform="translate(1021,567)" d="m0 0 6 2 2 2-1 6-3 4-5-1-2-3-1-6z" fill="#151730"/>
<path transform="translate(1333,548)" d="m0 0 6 1v2l2 1-5 10-7-1-2-4 2-5 3-1z" fill="#29375E"/>
<path transform="translate(732,545)" d="m0 0h5l2 2 4 2-6 5-9 6-1-7z" fill="#1A2046"/>
<path transform="translate(1034,405)" d="m0 0 4 1 6 4 11 11 4 5-2 4-3 3-1-4h2l-8-10-13-13z" fill="#29365D"/>
<path transform="translate(1684,386)" d="m0 0 6 5-2 4-4-3-6 2 1 2-6 2-7 6-2-1 1-4 13-10z" fill="#1C2348"/>
<path transform="translate(678,332)" d="m0 0h6l3 3v8l-2 2h-7l-1-1v-10z" fill="#14162E"/>
<path transform="translate(1303,1113)" d="m0 0h7l4 3-2 7-5 2-5-3-1-7z" fill="#0F0E1A"/>
<path transform="translate(241,792)" d="m0 0 7 1 1 7-3 5-5 1-2-1v-12z" fill="#10101F"/>
<path transform="translate(717,563)" d="m0 0 6 1 1 2-7 9-4 1-2-4-3-2 2-4z" fill="#171B39"/>
<path transform="translate(1456,311)" d="m0 0h10l-6 9-7 5-2-1-1-6 4-6z" fill="#171A36"/>
<path transform="translate(303,1180)" d="m0 0 1 2h8l5 4-2 5-4 3-7-5-1-2z" fill="#171B37"/>
<path transform="translate(1304,1164)" d="m0 0 7 1 3 3-2 6-2 2-7-1-2-7z" fill="#111221"/>
<path transform="translate(1609,1057)" d="m0 0h9v11l-1 2h-8l-1-12z" fill="#14152E"/>
<path transform="translate(769,509)" d="m0 0 6 1 2 1-1 5-7 6-5-1 1-8z" fill="#1A2045"/>
<path transform="translate(1134,48)" d="m0 0 9 2 1 5-4 4-7 1-2-2 1-9z" fill="#1C234C"/>
<path transform="translate(1044,740)" d="m0 0 3 4-2 5 5-1 2 5-3 4h-11l-1-6 5-5z" fill="#191F47"/>
<path transform="translate(24,606)" d="m0 0h4l2 6-8 8-5 2-3-1-1-4 4-2 1-2 7-3h-3v-3z" fill="#1A2049"/>
<path transform="translate(1851,321)" d="m0 0 7 6 9 9v3h-2l4 5-1 2-11-12-7-8-1-3h2z" fill="#161835"/>
<path transform="translate(390)" d="m0 0h10v9l-2 3-7-1-2-5z" fill="#14162F"/>
<path transform="translate(1304,1137)" d="m0 0 6 1 2 3v8l-2 2-5-1-3-5v-6z" fill="#13152D"/>
<path transform="translate(1940,645)" d="m0 0 6 1 1 2v7l-2 4-6-1-2-4 1-7z" fill="#14162F"/>
<path transform="translate(736,686)" d="m0 0h2v8l1 3-3 7-5 1-2-1v-2l2-1-1-7-2-1 3-1v-2h2v2l2-1z" fill="#1C234C"/>
<path transform="translate(1511,257)" d="m0 0 6 2 2 1-2 5-4 3-5 2-6-4 4-4z" fill="#161932"/>
<path transform="translate(351,473)" d="m0 0 4 1 12 4h-2l-1 4-2 3h-2v2l-7 3-3-1 6-7-3-4v-4z" fill="#141731"/>
<path transform="translate(393,449)" d="m0 0 5 1v3l-6 4-7 7-9 7-2-1v-3l3-2h2l5-6 6-7z" fill="#13142C"/>
<path transform="translate(1697,407)" d="m0 0 6 5 9 14-1 3-4-2-5-5-6-10 2-1z" fill="#2A385F"/>
<path transform="translate(393,199)" d="m0 0 5 1 2 7-3 5-4 2-3-3v-9z" fill="#10101D"/>
<path transform="translate(1330)" d="m0 0h12l-1 6-3 3-2-1v-2l-5 3-4 2h-3l2-4z" fill="#0E0C16"/>
<path transform="translate(296,1157)" d="m0 0 5 2 2 1 1 5-5 6-4-2-4-5 1-4z" fill="#171B36"/>
<path transform="translate(1668,704)" d="m0 0 11 2-4 2-9 6-5 6h-2l-1-5 5-8z" fill="#1C234C"/>
<path transform="translate(1474,294)" d="m0 0 9 3 2 2-8 7-6 2 1-10z" fill="#131424"/>
<path transform="translate(1082,48)" d="m0 0h8l1 1v9l-1 2-8 1z" fill="#171A38"/>
<path transform="translate(1336,290)" d="m0 0 3 3-9 6-8 3h-16l4-2 7-1 5-2 3-2h4l2-2z" fill="#1C234B"/>
<path transform="translate(1280,257)" d="m0 0 1 2 2 1v2h-2l1 8 5 13 7 10v2l-4-2-6-7-4-10-1-4v-11z" fill="#1D254E"/>
<path transform="translate(1790,238)" d="m0 0h9l2 1v2l7 1 2 1v2h4v2l-19-2-5-3z" fill="#29375E"/>
<path transform="translate(840,453)" d="m0 0 2 2v13l-2 16h-2l-2-11 1-11z" fill="#151833"/>
<path transform="translate(729,973)" d="m0 0h2l6 6v2h2l5 5 6 5 2 2v4l3 1h-6v-2l-8-7-8-8-5-7z" fill="#1A2049"/>
<path transform="translate(190,793)" d="m0 0h7l2 4-4 6-3 2-4-1-1-1v-6z" fill="#13152B"/>
<path transform="translate(1326,19)" d="m0 0 3 1-4 4-9 3-13 1-10-3v-3l6 2h12l11-3z" fill="#1D254D"/>
<path transform="translate(1914,134)" d="m0 0 5 1-5 6-12 6-5 1h-10v-1l8-1 10-5 4-4h3v-2z" fill="#1C234B"/>
<path transform="translate(92,719)" d="m0 0 4 2-1 3 8 7 2 1 1 4-3 1-8-7-8-6-1-4 4 1z" fill="#14152C"/>
<path transform="translate(1353,84)" d="m0 0 3 4v3l8 7 4 5 2 4-1 3-14-14v-2h-2l-1-7-1-2z" fill="#29375E"/>
<path transform="translate(502,920)" d="m0 0 4 2 6 4v2h2l2 3v5l-4 2-3-6-8-8z" fill="#14162F"/>
<path transform="translate(350,491)" d="m0 0h2l1 5h-2l-3 6h-2v2l-4 1v2l-8 4 1-4 4-2 1-4z" fill="#13142D"/>
<path transform="translate(32,1113)" d="m0 0 4 1-7 8-4 4v1l-8 1 2-4h2v-5l4-3h3z" fill="#1F274F"/>
<path transform="translate(445,1154)" d="m0 0 9 5 12-1 4 1 8-3 3 3-8 3-11 1-9-2-9-5z" fill="#1D254D"/>
<path transform="translate(1269,888)" d="m0 0 12 6 3 2h11l7-1 1 2-6 2h-16l-11-5z" fill="#1C234C"/>
<path transform="translate(87,659)" d="m0 0h6v12l-16-2v-2l8-2h3z" fill="#161935"/>
<path transform="translate(1805,137)" d="m0 0 5 1 1 2-10 6-7 2h-13v-1l12-3 10-5h2z" fill="#28365D"/>
<path transform="translate(1220,714)" d="m0 0h6l6 5 1 5 2 5 1 2-4-1-10-11z" fill="#151733"/>
<path transform="translate(0,1103)" d="m0 0 7 6 9 9-4 2-3-2-2-1-1-3-2 2-4-2z" fill="#161A39"/>
<path transform="translate(881,20)" d="m0 0 7 1 2 4-1 5-3 3h-2l1-7-9 1-5 5-3-1 8-7z" fill="#171B37"/>
<path transform="translate(755,666)" d="m0 0 7 1 1 5-6 4-5-1-2-5z" fill="#1B2148"/>
<path transform="translate(497,506)" d="m0 0 5 2v2l5-1h3 3l-1 5-5 2-7-2-4-4z" fill="#1A2047"/>
<path transform="translate(1305,568)" d="m0 0 4 1-6 6h-2l-2 6h2l-1 5-2 2-5-5v-4l8-7z" fill="#26335A"/>
<path transform="translate(1558)" d="m0 0h10v2l-5 1-2 11-3 1-3-7 1-4z" fill="#13152D"/>
<path transform="translate(892,809)" d="m0 0 4 1 7 8 2 4 4 2 3 3v2l4 2 5 6-3 1-14-15-12-12z" fill="#0E0D1B"/>
<path transform="translate(1494,899)" d="m0 0 5 5 6 7h2l1 3-2 2-5-1-6-7-1-5-1-2z" fill="#1A2049"/>
<path transform="translate(1574,706)" d="m0 0 5 1 10 11 9 4-1 4h-3l-5-5-14-11-2-3z" fill="#14162E"/>
<path transform="translate(606,201)" d="m0 0 5 3h5l4 5-3 7h-5l-2-5-2-4 6 2-1-1-5-3v-2h-2z" fill="#14162F"/>
<path transform="translate(1196,399)" d="m0 0 5 2 3 3 7 1 8-1 3-3 4-1 1 3-11 4h-13l-8-3z" fill="#1B214A"/>
<path transform="translate(1857,103)" d="m0 0 2 4v7l3 1 1 9v3l-3 1-4-13v-7z" fill="#1D244D"/>
<path transform="translate(1153,1113)" d="m0 0h11l1 4-2 2h-14l1-4z" fill="#1B224B"/>
<path transform="translate(581,733)" d="m0 0h3l1 3-7 5-7 2-5-2v-2l14-5z" fill="#141630"/>
<path transform="translate(995,1166)" d="m0 0h5l1 2h-5l-1 3-7 3-2 3h-2v2h-2l-2 4-6 6-2-1 7-8 12-12z" fill="#14152F"/>
<path transform="translate(1416,576)" d="m0 0 1 2-4 5-5 3-3 3-6-5v-1l7-2 6-4z" fill="#2A385F"/>
<path transform="translate(1155,66)" d="m0 0 2 1-1 2h-2v3l-5 4-5 5-6 2 2-5 8-7z" fill="#151731"/>
<path transform="translate(1495,851)" d="m0 0 3 1-10 9-5 5-1 4-4 2-5 2 6-8 13-13z" fill="#1D254A"/>
<path transform="translate(76,992)" d="m0 0 6 1 4 2v2l16 2v1l-5 1h-9l-7-2-5-5z" fill="#1C234B"/>
<path transform="translate(1812,957)" d="m0 0h5l-1 9-4 1h-7v2h-2l2-4 3-2h3l-1-4h2z" fill="#13152E"/>
<path transform="translate(601,488)" d="m0 0 4 2 10 10v2l4 2 8 6v1h-6l-11-12-4-3-4-5z" fill="#2A385F"/>
<path transform="translate(602,187)" d="m0 0 4 3 5 2 7 8 3 3h-2l-1 2-8-7-5-6-3-3z" fill="#28355C"/>
<path transform="translate(700,811)" d="m0 0 2 1v2l4 2 9 10v5l-7-6-7-8-2-5z" fill="#29365D"/>
<path transform="translate(997,754)" d="m0 0 11 7 4 3 10 2 1 2h-7l-11-4-9-8z" fill="#2A385F"/>
<path transform="translate(392,448)" d="m0 0 4 1-5 2zm-2 3m-1 1m-2 1 2 1-4 5-6 7-5 1 2-4 8-7zm-14 14m-2 1 4 2-3 3h-3l1-4z" fill="#181D3C"/>
<path transform="translate(1755,596)" d="m0 0 7 3 1 1v7l-4-2h-5l-2-6 3-1z" fill="#28365D"/>
<path transform="translate(1885)" d="m0 0h12l-1 5-3 2h-6l-2-3z" fill="#161935"/>
<path transform="translate(801,357)" d="m0 0 2 1-3 3 1 2-1 5h6v4l-5 1-4-5-4-2 2-4z" fill="#1E264E"/>
<path transform="translate(1242,580)" d="m0 0 5 1 3 2 5 1-1 4-4 2-8-6-1-3z" fill="#151730"/>
<path transform="translate(843,361)" d="m0 0 8 1 1 2-4 1 3 3 5-1 6 1-4 5-5-1-8-7z" fill="#161934"/>
<path transform="translate(64,512)" d="m0 0 1 2 8-1v4l3-1-2 4h-3v-2l-6 4-3-1z" fill="#14152E"/>
<path transform="translate(1887,1269)" d="m0 0h9l1 1v5l-1 1h-9z" fill="#161933"/>
<path transform="translate(751,930)" d="m0 0 4 1-4 3h-2l-3 3-3 5-8 7-4 1 2-4 16-15z" fill="#1A1F42"/>
<path transform="translate(1498,849)" d="m0 0 5 1 2 4-6 1-3 2-4 2-9 9v-3l12-12 2-1-1-2z" fill="#222D54"/>
<path transform="translate(344,667)" d="m0 0 4 2h5l-1 3 7-2h6l1 2-4 1h-16l-6-2z" fill="#1C234C"/>
<path transform="translate(601,485)" d="m0 0 4 2 15 16 8 6-3 1-10-8-7-8-7-6z" fill="#181D41"/>
<path transform="translate(1008,380)" d="m0 0 4 1 5 4 4 3 2 10h-2l-1-5h-2l-7-8z" fill="#29375E"/>
<path transform="translate(1574)" d="m0 0h8l1 5 8 7 5 6-1 2-8-8-2-1v-2h-2l-4-4z" fill="#2A385F"/>
<path transform="translate(1774,618)" d="m0 0h4l2 3h1v8l-11-3 3-3z" fill="#1B214A"/>
<path transform="translate(1448,563)" d="m0 0 4 1 9 10 8 7v2l-3 1-5-4-4-7-5-5v-2l-4-2z" fill="#1E264D"/>
<path transform="translate(2036,611)" d="m0 0 12 3v5h-6l-8-5-1-2z" fill="#1B224B"/>
<path transform="translate(1897,370)" d="m0 0 5 2 5 6-1 4 3 4-4-2-7-9-2-1z" fill="#13142C"/>
<path transform="translate(304,352)" d="m0 0 5 2 10 8 10 9 1 4h-2l-1-3-22-18z" fill="#1A2043"/>
<path transform="translate(656,331)" d="m0 0 5 1 1 2v9l-6 2-1-3 5-1v-4h-2l-2 3-3-1v-2h2z" fill="#1D244C"/>
<path transform="translate(1442,848)" d="m0 0 5 1v3l-2 5-2 2-1 4-4-2 3-11z" fill="#1C234B"/>
<path transform="translate(139,1151)" d="m0 0 11 6v4l-6-1-7-6v-2z" fill="#151732"/>
<path transform="translate(1617,529)" d="m0 0 3 1 3 2-1 5h-8l-3-1 1-5z" fill="#1B214A"/>
<path transform="translate(1823,296)" d="m0 0 5 2 8 8 4 5 3 3h-2l-1 2-4-5v-2l-4-2-4-5-5-4z" fill="#161936"/>
<path transform="translate(180,151)" d="m0 0 3 1v7l-1 8-4 1v-12z" fill="#2A385F"/>
<path transform="translate(1763,999)" d="m0 0h7l-3 4 1 6-5-1-3-3 1-5z" fill="#151732"/>
<path transform="translate(90,339)" d="m0 0 8 1-3 1-1 5-4 2-2 2-1-2v-7z" fill="#171A36"/>
<path transform="translate(1059,47)" d="m0 0 6 1 1 1v8l-2 3h-5l3-6v-3l-4-2z" fill="#161833"/>
<path transform="translate(1498,280)" d="m0 0 4 1-4 6-6 4-5-5 1-2h7z" fill="#13152C"/>
<path transform="translate(1759,261)" d="m0 0 2 1v2l2 1v13l-2 2-3-9v-9z" fill="#151833"/>
<path transform="translate(1757,231)" d="m0 0h9l11 1 2 2-11 1-7 1-1-3h-3z" fill="#171A36"/>
<path transform="translate(1464,722)" d="m0 0 5 1 2 3v9l-5 1-1-2h3v-8h-4l-1 10h-1v-12z" fill="#151832"/>
<path transform="translate(1241,543)" d="m0 0h2l-2 4-4 5-5 4-5-5 12-6z" fill="#28365D"/>
<path transform="translate(750,528)" d="m0 0 2 1 1 3 2 2-3 2-11 1 2-4z" fill="#1C2346"/>
<path transform="translate(1358,524)" d="m0 0 4 1 1 5-8 9h-2l1-9h3l2 1z" fill="#161834"/>
<path transform="translate(615,216)" d="m0 0 6 4v3l-3 2h-4v-2l-5-1 5-5z" fill="#2A385F"/>
<path transform="translate(1035,213)" d="m0 0 4 2-10 6h-6l-2-1v-2z" fill="#14162F"/>
<path transform="translate(1815,104)" d="m0 0h4l2 8h2l-1 5-4-1-2-6h-2z" fill="#13142C"/>
<path transform="translate(282,994)" d="m0 0h2l14 19 5 7-1 2-9-11-10-14z" fill="#1C2247"/>
<path transform="translate(1793,628)" d="m0 0 4 1v4h-3l2 6-1 2h-4l-1-7z" fill="#10101D"/>
<path transform="translate(1227,280)" d="m0 0h3l1 2-2 3-5 2-3 1-1 2-4 2h-7l-6-2 2-1h9l10-5z" fill="#1D254C"/>
<path transform="translate(1553,171)" d="m0 0 2 2h7l-3 6h-7l-2-4 1-3z" fill="#161937"/>
<path transform="translate(272,1034)" d="m0 0h5l3 4-3 4h-6l-1-4h2l-1-3z" fill="#14152E"/>
<path transform="translate(1931,435)" d="m0 0h3v2h-2l2 9 1 4h2l3 4-4-1-4-4-2-5h-2v-6l3-1z" fill="#13142C"/>
<path transform="translate(81,301)" d="m0 0 2 1-1 4-5 6h-2l-5 5 1-5 2-3h2l2-4z" fill="#28355D"/>
<path transform="translate(102,280)" d="m0 0h2l11 14 4 5-1 2-7-6-5-7-3-5z" fill="#191D3E"/>
<path transform="translate(509,47)" d="m0 0h1l1 5 2 1v2l3-2 2-4v8l-10-1-2-2 1-6z" fill="#11111F"/>
<path transform="translate(1743,1168)" d="m0 0h2l1 5-3 3h-2v2l-5 1v-4h2l1-4z" fill="#2A385F"/>
<path transform="translate(1019,645)" d="m0 0h8l2 2v7l-2 3v-5h-5v-4l-5 1z" fill="#1E264E"/>
<path transform="translate(717,563)" d="m0 0 6 1 1 2-3 3-7 1-2-1v-4z" fill="#1C244C"/>
<path transform="translate(1699,1151)" d="m0 0h5l-2 4-5 4-6-2 2-4z" fill="#29375E"/>
<path transform="translate(279,1110)" d="m0 0 7 1 2 5-4 3-4-1v-4l1-1-2-1z" fill="#151833"/>
<path transform="translate(1306,968)" d="m0 0 6 1 2 5 3 4-1 2-8-8-3-1-7 6 2-4z" fill="#1B2247"/>
<path transform="translate(230,450)" d="m0 0 4 1 8 8 5 6-1 2-12-11-4-4z" fill="#151831"/>
<path transform="translate(95,447)" d="m0 0 3 1 1 4-3 2h-6l-2-1 1-4z" fill="#10101D"/>
<path transform="translate(1593,1245)" d="m0 0h4l2 3 3-2-2 5-9 9v-3l3-4 1-4-3-3z" fill="#151733"/>
<path transform="translate(952,1207)" d="m0 0h2l1 3-4 5-4 1-9 8v-3z" fill="#141733"/>
<path transform="translate(1729,1033)" d="m0 0 5 1 3 3-3 3h-3l-1-4-2 5-3-1-1 2 1-5z" fill="#1B2149"/>
<path transform="translate(697,983)" d="m0 0 1 3h-2v6l4 2-1 2 1 1v1h-5l-3-3v-6z" fill="#1B224A"/>
<path transform="translate(926,843)" d="m0 0h2v2l4 2 9 9v2l4 2v3l-7-6-12-12z" fill="#0E0D1A"/>
<path transform="translate(873,787)" d="m0 0 4 2 16 17 3 4-4-2-7-6-7-8-5-5z" fill="#161A3A"/>
<path transform="translate(1025,447)" d="m0 0 4 2 9 10 6 8-1 2-5-4-4-6-7-9z" fill="#1B2146"/>
<path transform="translate(779,447)" d="m0 0 9 1 2 2-4 1h-8v4l-3-1-1-5z" fill="#28355C"/>
<path transform="translate(294,347)" d="m0 0 5 2 4 3 1-2 3 5 9 7 1 2-4-2-14-9-5-5z" fill="#29375E"/>
<path transform="translate(1628,271)" d="m0 0 2 3-5 5-3 1-1 2-2-1 1-5h2l1-3z" fill="#1B224A"/>
<path transform="translate(1853,1148)" d="m0 0 3 1v5l-2 5-5-2 1-7z" fill="#28355C"/>
<path transform="translate(1334,722)" d="m0 0h8l1 1v6l-2 1v-4l-7 1v6h-1v-10z" fill="#15182B"/>
<path transform="translate(1020,447)" d="m0 0h3l-1 4-6 2v4h-2l-1 2-6 3 2-4 7-8z" fill="#1D254D"/>
<path transform="translate(1411,337)" d="m0 0h6l3 2-1 4v-2h-5v3l-5-1-1-3z" fill="#171A37"/>
<path transform="translate(1218,698)" d="m0 0 5 1 7 8 4 4v2l-5-2-3-4v-2l-4-1-2-3h-3z" fill="#141632"/>
<path transform="translate(1517,549)" d="m0 0 4 1v11h-2l-1-2-6-1 3-3h2z" fill="#151833"/>
<path transform="translate(96,471)" d="m0 0h3v3h-2l1 5-5 1-4-2v-2h2v-2z" fill="#100F1C"/>
<path transform="translate(858,306)" d="m0 0 4 1 3 4-1 4-7 6-2-1 5-7z" fill="#171B36"/>
<path transform="translate(1518,242)" d="m0 0h4v2l5-1 2 4-3 3-5-2-3-3z" fill="#171A35"/>
<path transform="translate(0,1123)" d="m0 0 5 2 2 4v3l-5 1-2-1z" fill="#8B93A8"/>
<path transform="translate(678,812)" d="m0 0v3l-4 5-3 4-4 1-3 2 2-4zm-15 15m-1 1m-1 1m-2 1 2 1-6 5 2-4z" fill="#232D55"/>
<path transform="translate(1298,521)" d="m0 0 2 1 2 6v2h-3v2l-5-1 1-5z" fill="#29375E"/>
<path transform="translate(1638,516)" d="m0 0 6 1-4 8-5-1v-6z" fill="#202951"/>
<path transform="translate(94,417)" d="m0 0 4 1 1 1v6l-5 5-3-4v-2l5-1z" fill="#0E0D19"/>
<path transform="translate(369,1261)" d="m0 0 5 2 6 3v2l-7 1-5-5z" fill="#111123"/>
<path transform="translate(1516,725)" d="m0 0h2l1 10 2 2h-8l-1-4 2-1z" fill="#222C54"/>
<path transform="translate(24,564)" d="m0 0 5 4 5 9v2l-4-2v-2l-4-2 1-3-3-1z" fill="#1C234A"/>
<path transform="translate(278,1087)" d="m0 0 5 1-1 7-6-1-1-2 1-1v-3z" fill="#161937"/>
<path transform="translate(1862,1062)" d="m0 0 6 1 7 9v2l-4-2-5-4z" fill="#1A1F42"/>
<path transform="translate(396,779)" d="m0 0 8 6 4 4h-2l2 4-4-2-5-5-4-6z" fill="#29365D"/>
<path transform="translate(325,657)" d="m0 0 5 2 10 8-1 3-6-4-6-5z" fill="#1A2045"/>
<path transform="translate(571,459)" d="m0 0 4 2 5 3 5 5-1 4-8-7z" fill="#28355C"/>
<path transform="translate(1477,295)" d="m0 0 6 2 2 2-5 5-4-1v-6z" fill="#171B37"/>
<path transform="translate(2038,206)" d="m0 0 1 2 1 5 4 4v2l-9-1 1-5-1-3h2l-1-3z" fill="#29375E"/>
<path transform="translate(267,195)" d="m0 0 4 1 2 4h-2v3l-3 1-4-1 1-5z" fill="#14162C"/>
<path transform="translate(67,199)" d="m0 0 4 2 6 6 5 2 1 3 2 1v4l-4-2-9-10z" fill="#13152E"/>
<path transform="translate(329,1217)" d="m0 0 6 4v3l3-1 3 3v3l-6-1-4-3z" fill="#1B2142"/>
<path transform="translate(1213,696)" d="m0 0 6 1-4 7-3-1-1 3-1-8z" fill="#1C244C"/>
<path transform="translate(1351,522)" d="m0 0 2 2-5 6-4 2-3 4-3 3h-2l2-4z" fill="#242F57"/>
<path transform="translate(627,227)" d="m0 0 4 2 9 9 4 5 2 1v2l-4-2-14-14z" fill="#1A1F3C"/>
<path transform="translate(1080,998)" d="m0 0 5 1 6 5-1 3-4-2 1 4-4-3v-3l-3-3z" fill="#13152E"/>
<path transform="translate(692,587)" d="m0 0 9 2-2 4-5 2-3-4z" fill="#1C244C"/>
<path transform="translate(1217,393)" d="m0 0 3 1-1 2 2 1-4 2h-3l-1 2-3-1v-4l-3-1z" fill="#1B2149"/>
<path transform="translate(327,305)" d="m0 0 2 1-7 7-3-1-5 2 1-6 4-1h4z" fill="#13142C"/>
<path transform="translate(1769,246)" d="m0 0h1l1 7v8h-3l-2-4 1-7z" fill="#2A385F"/>
<path transform="translate(1558,147)" d="m0 0 8 2 2-1-1 5-1 1h-7l-1-1z" fill="#0F0F1D"/>
<path transform="translate(1563,120)" d="m0 0 2 4h4v4h-8l-2-5z" fill="#0E0D17"/>
<path transform="translate(1907,779)" d="m0 0 2 4-1 4-2 1h-6l1-4z" fill="#13142D"/>
<path transform="translate(71,701)" d="m0 0h5v3l4 5-4-2-5 3-2-5h2z" fill="#1D244C"/>
<path transform="translate(729,550)" d="m0 0 1 2h6l-2 4-6 4-1-7z" fill="#171A35"/>
<path transform="translate(394,505)" d="m0 0h4l4 3v3l-4 2-5-3z" fill="#212A52"/>
<path transform="translate(376,477)" d="m0 0h4l-1 5-5 3h-2l-1-5z" fill="#28365D"/>
<path transform="translate(1937,403)" d="m0 0h3l-1 4-7 4-1 2h-2v2h-2l-1 3-1-2 6-8z" fill="#161934"/>
<path transform="translate(869,44)" d="m0 0 4 1-6 7-1 2h-5l4-7z" fill="#2A385F"/>
<path transform="translate(464,33)" d="m0 0 4 2 1 1v6l-3 4-3-1 1-6v-4z" fill="#11101E"/>
<path transform="translate(590,1241)" d="m0 0 2 1-1 5-5 5h-4l2-4z" fill="#1C234C"/>
<path transform="translate(241,792)" d="m0 0 7 1-2 1 1 5-3 1v2l-3-1-1-4 2-3z" fill="#151832"/>
<path transform="translate(803,719)" d="m0 0 7 6 13 13-1 2-8-8-7-6-4-5z" fill="#111221"/>
<path transform="translate(453,450)" d="m0 0 4 1 12 12-1 2-6-4-4-5-5-5z" fill="#161A35"/>
<path transform="translate(1433,326)" d="m0 0h6l-3 2h-3l-1 4h2l1 4-4 2-2-2v-6z" fill="#0F0F1C"/>
<path transform="translate(313,216)" d="m0 0 1 2h9v4h-8l-4-2v-3z" fill="#10101E"/>
<path transform="translate(367,207)" d="m0 0 3 1 2 3-2 4h-4l-2 3v-7z" fill="#151730"/>
<path transform="translate(182,124)" d="m0 0 11 2 2 2-6 2h-6z" fill="#13142C"/>
<path transform="translate(170,34)" d="m0 0 5 1 1 4h-3l-5 3-3 1 1-4z" fill="#14152F"/>
<path transform="translate(276 1e3)" d="m0 0 4 4 5 7-1 2-4-4-1-2h-3v-2l-3 1-1-2z" fill="#2A385F"/>
<path transform="translate(771,684)" d="m0 0 4 1 5 4 2 5-9-4-2-3z" fill="#121327"/>
<path transform="translate(750,670)" d="m0 0 11 1 2-1-1 3-5 3-5-1z" fill="#161833"/>
<path transform="translate(1837,650)" d="m0 0h6l4 4-1 9-5-1 3-1v-6l-2-2-5-1z" fill="#121222"/>
<path transform="translate(1568,548)" d="m0 0h4l1 2v7l-2 3h-5l2-5h2v-5z" fill="#121221"/>
<path transform="translate(349,490)" d="m0 0 2 1-7 7v-3zm-7 8m-1 1m-2 1 2 1-2 5-7 3 2-4z" fill="#1B2141"/>
<path transform="translate(245,187)" d="m0 0 3 1v6l4-1-2 5h-6l1-3z" fill="#1B2249"/>
<path transform="translate(171,89)" d="m0 0 4 2v2l3-1 2 4-4 2-3 3-1-2 1-5h-2z" fill="#1F2850"/>
<path transform="translate(1686,1056)" d="m0 0 7 1 2 2v8l-3 1-1-9-5-1-1 2z" fill="#10101E"/>
<path transform="translate(1085,981)" d="m0 0 2 4-2 4-6 2 1-6h2v-3z" fill="#2A385F"/>
<path transform="translate(15,871)" d="m0 0m-2 1 4 2-5 5-10 1 1-2 8-4z" fill="#171B3A"/>
<path transform="translate(95,721)" d="m0 0 4 1 7 9-3 1-5-4v-2l-4-2z" fill="#11111F"/>
<path transform="translate(1721,624)" d="m0 0 1 3 7-1 3 1v3l-3 1h-7l-1-1z" fill="#1C244D"/>
<path transform="translate(2034,620)" d="m0 0 6 2 8 2-1 4-14-4z" fill="#1C244C"/>
<path transform="translate(766,515)" d="m0 0 8 2-5 5-5-1 1-5z" fill="#161934"/>
<path transform="translate(367,1257)" d="m0 0 3 2 7 2 5 6-2 1v-2l-6-2-5-2h-2z" fill="#1D254D"/>
<path transform="translate(1020,491)" d="m0 0h6l-4 3-2 1v7l3 1-4 1-2-2v-7l1-3z" fill="#212B53"/>
<path transform="translate(1660,403)" d="m0 0 2 4-11 10-2-1 4-5v-2z" fill="#242F56"/>
<path transform="translate(1855,332)" d="m0 0h2l9 11 7 6-2 2-12-12-4-5z" fill="#0F0E1E"/>
<path transform="translate(203,158)" d="m0 0 1 2 7-1h3v3l-5 2-6-1z" fill="#161933"/>
<path transform="translate(783,55)" d="m0 0 5 2 2 3-2 2-6-1-2-2z" fill="#13142B"/>
<path transform="translate(1581,2)" d="m0 0 4 1 10 10-2 3-7-8-5-5z" fill="#1D254C"/>
<path transform="translate(1707,1159)" d="m0 0 4 1 9 10-3 1-5-4-5-6z" fill="#2A385F"/>
<path transform="translate(306,909)" d="m0 0 4 2-2 4-7 4-1-2z" fill="#29365D"/>
<path transform="translate(426,773)" d="m0 0 2 1 4 3-1 4-2-2-9 1z" fill="#191F47"/>
<path transform="translate(1659,481)" d="m0 0h9v4l-4 2-4-1z" fill="#171A38"/>
<path transform="translate(1918,391)" d="m0 0 7 2-1 5-5 1-2-7z" fill="#1B214A"/>
<path transform="translate(317,364)" d="m0 0 4 2 7 6v3l3-1-1 5-3 1-2-6-7-8z" fill="#222D55"/>
<path transform="translate(298,313)" d="m0 0h2l-2 6-6 3-6 1 5-5z" fill="#151833"/>
<path transform="translate(1643,260)" d="m0 0h7l10 4-2 2-5-1v-2h-11z" fill="#1B224A"/>
<path transform="translate(1150,22)" d="m0 0 5 2 16 12 1 2-5-2-10-8-7-5z" fill="#171B37"/>
<path transform="translate(945,862)" d="m0 0 4 2 10 10-1 3-13-13z" fill="#0D0B16"/>
<path transform="translate(81,713)" d="m0 0 4 2 7 4-1 3-7-2-3-3z" fill="#1D254E"/>
<path transform="translate(2042,226)" d="m0 0 5 1-1 6 2 3-4-2-5-4v-3z" fill="#151731"/>
<path transform="translate(1298,979)" d="m0 0v3l-8 9-5 2 2-4 5-5z" fill="#181D3E"/>
<path transform="translate(713,969)" d="m0 0 2 1-9 9-5 1 6-7 4-3z" fill="#1A2047"/>
<path transform="translate(294,951)" d="m0 0 7 4 4 2-1 4-5-2-2-1v-2l-2-1z" fill="#29375E"/>
<path transform="translate(1413,722)" d="m0 0h5l2 2v3l-5-1-1 2-4 1 1-5z" fill="#14172F"/>
<path transform="translate(1437,722)" d="m0 0h6l2 1v12h-1v-11h-6l-1 10h-1v-11z" fill="#202947"/>
<path transform="translate(1025,522)" d="m0 0h4l-2 5-1 1h-5l-3-3z" fill="#13142C"/>
<path transform="translate(1710,443)" d="m0 0h8l1 4h-2v2l-5-1-2-2z" fill="#141730"/>
<path transform="translate(611,216)" d="m0 0h4l-1 2-4 3-1 3-5 3-3-1z" fill="#1F284E"/>
<path transform="translate(85,1151)" d="m0 0 3 1v2l5-1-1 6-5-1-3-5z" fill="#2A385F"/>
<path transform="translate(1916,1131)" d="m0 0 5 5 7 9 1 5-4-4-9-13z" fill="#2A385F"/>
<path transform="translate(426,778)" d="m0 0 5 1 1 3-4-1-3 3h-5v-3-1z" fill="#13142C"/>
<path transform="translate(1253,708)" d="m0 0h2l-1 7-4 3-4 1 2-5z" fill="#151731"/>
<path transform="translate(563,447)" d="m0 0 7 6 10 10-1 2-6-5-7-8-3-3z" fill="#181D3C"/>
<path transform="translate(1647,328)" d="m0 0h3v2l-8 2-10-1 2-2z" fill="#2A385F"/>
<path transform="translate(1823,301)" d="m0 0 4 2 8 8v2l-4-2-7-6z" fill="#161830"/>
<path transform="translate(830,21)" d="m0 0 4 1 6 5 7 8-1 2-12-12z" fill="#191E3B"/>
<path transform="translate(1693,1209)" d="m0 0 4 5 3 1 1 4-5 1-3-5z" fill="#2A385F"/>
<path transform="translate(314,1197)" d="m0 0 3 1 2 6h6v3l-4 1-2-2-2 3-2-9z" fill="#212B52"/>
<path transform="translate(1862,910)" d="m0 0 5 2 2 1-2 4-4-1-3-3v-2z" fill="#141630"/>
<path transform="translate(669,784)" d="m0 0 7 6 8 7 3 5-4-2-14-14z" fill="#2A385F"/>
<path transform="translate(1585,704)" d="m0 0h5l5 5 4 5h-3l-11-9z" fill="#29365D"/>
<path transform="translate(485,164)" d="m0 0 7 3 6 1v1l-10 1-6-4z" fill="#2A385F"/>
<path transform="translate(512,43)" d="m0 0 6 2 1 2v9h-1l-1-7-3-2-6 1 2-4z" fill="#14162A"/>
<path transform="translate(995,1166)" d="m0 0h5l1 2h-5l-1 3-7 2 2-4z" fill="#181C37"/>
<path transform="translate(1862,853)" d="m0 0 2 1-12 12-2-1 9-10z" fill="#171B37"/>
<path transform="translate(1263,742)" d="m0 0 4 2 7 8 1 5-5-5-7-9z" fill="#1B224B"/>
<path transform="translate(1600,728)" d="m0 0 6 2 1 4h-6l-3-3z" fill="#2A385F"/>
<path transform="translate(1317,724)" d="m0 0h1v5l-5 2h-4l1-5z" fill="#1A2048"/>
<path transform="translate(1351,573)" d="m0 0 5 3 3 5 4 1-1 4-5 1 2-2-6-8z" fill="#29375E"/>
<path transform="translate(2026,215)" d="m0 0 3 2v4l-6 3-3 3-2-1 7-8z" fill="#1D254E"/>
<path transform="translate(652,181)" d="m0 0 4 2 2 4-1 4-7 7v-3l4-5 1-6h-3z" fill="#171B36"/>
<path transform="translate(1894,1251)" d="m0 0h2v4l-7 2-2-1 1-4z" fill="#0F0E19"/>
<path transform="translate(788,1112)" d="m0 0 4 2 8 8 1 4-4-2-7-9-2-1z" fill="#191F45"/>
<path transform="translate(1304,1040)" d="m0 0 4 1 4-1-1 5-5 1-3-1z" fill="#111024"/>
<path transform="translate(1334,727)" d="m0 0h1v6l6-1v5h-7z" fill="#0D0B17"/>
<path transform="translate(33,717)" d="m0 0h4v4l-9 1-2-3z" fill="#171A35"/>
<path transform="translate(28,650)" d="m0 0h13l2 2-9 1-4 1z" fill="#161934"/>
<path transform="translate(1029,520)" d="m0 0h1l-1 7-4 4-7-2-1-3 9 1z" fill="#1E274F"/>
<path transform="translate(351,462)" d="m0 0 5 2 6 7v2l-4-2-7-8z" fill="#2A385F"/>
<path transform="translate(1700,407)" d="m0 0 5 5 8 12v2h-2l-7-11-4-5z" fill="#191F41"/>
<path transform="translate(244,137)" d="m0 0 4 1v5l1 3-7-1-1-2 4-1-2-3z" fill="#141630"/>
<path transform="translate(391,3)" d="m0 0 3 1 1 7-5-1-1-4z" fill="#0F0D18"/>
<path transform="translate(319,632)" d="m0 0 2 4 1 5-1 2h3l-1 4-1-1-2 2-1-4z" fill="#1D244D"/>
<path transform="translate(769,509)" d="m0 0 6 1 2 1-1 5-7-1 1-4z" fill="#29375E"/>
<path transform="translate(1610,310)" d="m0 0 5 5 2 5v2l-4-2-3-5z" fill="#1B2149"/>
<path transform="translate(1280,257)" d="m0 0 1 2 2 1v2h-2l1 12-3-2v-11z" fill="#1F274F"/>
<path transform="translate(82,216)" d="m0 0 1 2h3l1 3h-5l-4 4-3 5-2 1 2-6 6-6z" fill="#27335B"/>
<path transform="translate(1335,89)" d="m0 0v3zm-2 3m-2 1 2 1-3 4-5 5-3 1 2-4z" fill="#212B53"/>
<path transform="translate(1887,1177)" d="m0 0h9l-1 4h-7z" fill="#0F0F1C"/>
<path transform="translate(501,448)" d="m0 0 5 1-6 7-3 2v-3z" fill="#1D244C"/>
<path transform="translate(1225,400)" d="m0 0 2 3-11 4h-5l1-2 7-1 3-3z" fill="#1C244A"/>
<path transform="translate(757,332)" d="m0 0 6 1 2 4v7h-2l-1-8-6-1z" fill="#1B203E"/>
<path transform="translate(633,83)" d="m0 0 6 2 4 2 13 1v1h-14l-10-4z" fill="#1E264E"/>
<path transform="translate(1372,56)" d="m0 0 5 1 2 4-3 2-6-3z" fill="#171A36"/>
<path transform="translate(8,1111)" d="m0 0 8 6-4 3-3-2-2-1z" fill="#1D244C"/>
<path transform="translate(1495,851)" d="m0 0 3 1-10 9-4 1 6-7z" fill="#191F42"/>
<path transform="translate(1928,774)" d="m0 0 6 2 8 8-1 2-13-11z" fill="#2A385F"/>
<path transform="translate(1386,722)" d="m0 0h9v3l-7 1-2 3z" fill="#111121"/>
<path transform="translate(660,617)" d="m0 0 8 2-4 4h-6z" fill="#1B2148"/>
<path transform="translate(1032,395)" d="m0 0 3 3-4 2-1 2-4-1v-3z" fill="#2A385F"/>
<path transform="translate(2030,203)" d="m0 0 5 2 2 5h-2l-1 2-4-5z" fill="#1B2248"/>
<path transform="translate(204,150)" d="m0 0 8 1 2 4-7-2-3 1-1 3v-6z" fill="#161935"/>
<path transform="translate(1321,58)" d="m0 0 4 2 10 10v2h-2l-6-7-4-2z" fill="#181C38"/>
<path transform="translate(445,27)" d="m0 0h1v9l-9-1 1-2 6-2z" fill="#222C50"/>
<path transform="translate(295,800)" d="m0 0h3v5l-4 1-3-2v-3z" fill="#0E0D17"/>
<path transform="translate(271,794)" d="m0 0 3 1 1 7-1 2-4-1z" fill="#11111F"/>
<path transform="translate(639,639)" d="m0 0 1 2h5l-2 4h-6v-4z" fill="#0D0C17"/>
<path transform="translate(1212,556)" d="m0 0h2v2l-7 6-2 4-2 1-2-2z" fill="#1C2345"/>
<path transform="translate(1309,530)" d="m0 0 5 3 4 5 4 1v5l-7-6-6-6z" fill="#29375E"/>
<path transform="translate(783,499)" d="m0 0h10l-1 3-2 1h-6z" fill="#1E274E"/>
<path transform="translate(1684,429)" d="m0 0 1 3-4 6h-7l-1-3h7z" fill="#212B53"/>
<path transform="translate(376,341)" d="m0 0 5 1-3 3-5 1-3-2 2-2z" fill="#202951"/>
<path transform="translate(1815,289)" d="m0 0 5 1 2 4-3 3-3-3v-2l-2-1z" fill="#29365D"/>
<path transform="translate(19,239)" d="m0 0 5 4-1 4h-4l-1-5z" fill="#1C234B"/>
<path transform="translate(413,196)" d="m0 0 5 3h2l-1 4-5 1-1-1z" fill="#0E0D18"/>
<path transform="translate(435,29)" d="m0 0 8 1-1 3-7 1-1-4z" fill="#0C0A13"/>
<path transform="translate(794,1207)" d="m0 0h1v5l-3 3h-9l4-2 3-1z" fill="#202951"/>
<path transform="translate(557,1197)" d="m0 0 2 1-3 1-1 3-5 3-3-1 4-4z" fill="#1C234B"/>
<path transform="translate(764,1142)" d="m0 0 1 2-1 2h-2l-2 7-2 1-1-4-1-3 5-2z" fill="#13142C"/>
<path transform="translate(0,1118)" d="m0 0 7 6 1 6-6-6-2-1z" fill="#212B53"/>
<path transform="translate(1303,1094)" d="m0 0h6l1 5h-6z" fill="#0E0D18"/>
<path transform="translate(2035,1090)" d="m0 0h2l2 4-7 4-2-2z" fill="#222C52"/>
<path transform="translate(1585,1059)" d="m0 0h1l2 11h-6l2-1-1-8z" fill="#1B214A"/>
<path transform="translate(1893,656)" d="m0 0h3l2 5v6l-1 1h-5l3-3-1-7z" fill="#111121"/>
<path transform="translate(648,640)" d="m0 0 2 3-3 3-7 1-2-2 6-2z" fill="#1E264C"/>
<path transform="translate(1617,529)" d="m0 0 3 1 3 2-1 3-9-1z" fill="#2A385F"/>
<path transform="translate(289,341)" d="m0 0 4 1 10 8v2l-4-2-3-2v-2l-4-2z" fill="#181D3C"/>
<path transform="translate(284,324)" d="m0 0 2 1-8 8-5 3 2-4 7-7z" fill="#181C3A"/>
<path transform="translate(1837,313)" d="m0 0 5 5 5 7-4-2-7-7z" fill="#131427"/>
<path transform="translate(602,187)" d="m0 0 4 3 5 2 5 5-1 2-6-5-4-2-3-3z" fill="#242F57"/>
<path transform="translate(774,159)" d="m0 0 5 1-5 4-4 2v-5z" fill="#1B224A"/>
<path transform="translate(1109,50)" d="m0 0h1l1 5h3v5h-8l4-2v-2h-2v-5z" fill="#2A385F"/>
<path transform="translate(1089,49)" d="m0 0h2v9l-2-3-2 2-1-1v-5z" fill="#191E42"/>
<path transform="translate(930,51)" d="m0 0h5l-1 6h-4v2l-2-1z" fill="#1D244D"/>
<path transform="translate(1307,1113)" d="m0 0 5 1 2 4-2 3-4-4z" fill="#161933"/>
<path transform="translate(1310,1010)" d="m0 0 3 1v10h-3z" fill="#141630"/>
<path transform="translate(1274,1008)" d="m0 0 2 4-3 3-5 2 2-5z" fill="#151731"/>
<path transform="translate(548,960)" d="m0 0 9 2 1 2-3 3-4-2v-2h-2z" fill="#1B224B"/>
<path transform="translate(1295,838)" d="m0 0 9 3v2l-18-2v-1l9-1z" fill="#202951"/>
<path transform="translate(379,461)" d="m0 0m-1 1m-2 1 2 1-4 3zm-3 4m-2 1 4 2-3 3h-3l1-4z" fill="#181C3A"/>
<path transform="translate(1015,402)" d="m0 0h3l4 5-6 1-3-1z" fill="#13142C"/>
<path transform="translate(1672,396)" d="m0 0 2 1-8 7-2-1 1-4 4-2z" fill="#222C50"/>
<path transform="translate(1897,370)" d="m0 0 5 2 5 6-1 2-8-7z" fill="#0F0F1B"/>
<path transform="translate(843,361)" d="m0 0 8 1 1 2-4 1 3 3-1 2-7-7z" fill="#141630"/>
<path transform="translate(611,336)" d="m0 0h1l-1 7h-3v2h-7l4-1 1-3 3-1z" fill="#222C54"/>
<path transform="translate(1311,116)" d="m0 0h3l3 5 1 4-4-2-3-4z" fill="#2A385F"/>
<path transform="translate(128,1108)" d="m0 0 3 2-5 4-3 3-3-1z" fill="#212B53"/>
<path transform="translate(1512,724)" d="m0 0h6l-2 2-2 7h-2z" fill="#151834"/>
<path transform="translate(1019,647)" d="m0 0 4 1 1 2h-2l-1 3h-4l1-5z" fill="#151834"/>
<path transform="translate(1305,568)" d="m0 0 4 1-6 6-4 1 2-4z" fill="#253158"/>
<path transform="translate(735,545)" d="m0 0 8 4-7 2-3-1z" fill="#2A385F"/>
<path transform="translate(620,452)" d="m0 0 3 4-4 4-1-3-2-1 1-3z" fill="#303E63"/>
<path transform="translate(1031,400)" d="m0 0 4 1 6 6-1 2-3-3-5-2z" fill="#1F2850"/>
<path transform="translate(360,1251)" d="m0 0 3 1 5 7h-3l-6-4z" fill="#181D3B"/>
<path transform="translate(27,1133)" d="m0 0 4 2 3 3v2h2l1 4-7-6-3-3z" fill="#2A385F"/>
<path transform="translate(530,935)" d="m0 0 1 2h2l3 5-5-1-4-2 1-3z" fill="#14162F"/>
<path transform="translate(1497,901)" d="m0 0 4 2 5 6-1 3-8-9z" fill="#171B36"/>
<path transform="translate(912,829)" d="m0 0 4 2 5 6-3 1-6-7z" fill="#11111F"/>
<path transform="translate(1903,778)" d="m0 0m-1 1m-1 1m-1 1m-2 1 2 1-2 3v2l-6 2v-3z" fill="#222C54"/>
<path transform="translate(1217,707)" d="m0 0 4 2v3h3v3l-5-2-3-4z" fill="#171C3F"/>
<path transform="translate(624,653)" d="m0 0 7 1 2 1-1 3h-7z" fill="#1A2041"/>
<path transform="translate(685,601)" d="m0 0 2 3-5 7h-2l1-4h2v-5z" fill="#283157"/>
<path transform="translate(18,560)" d="m0 0 5 2-2 4-4-1-1-4z" fill="#1B224A"/>
<path transform="translate(1609,537)" d="m0 0 7 2-2 4h-4z" fill="#10101D"/>
<path transform="translate(617,506)" d="m0 0 6 5-4 4-3-4z" fill="#1B224A"/>
<path transform="translate(601,485)" d="m0 0 4 2 6 7h-3l-7-6z" fill="#1D254A"/>
<path transform="translate(1511,257)" d="m0 0 6 2 2 1-2 4-5-3z" fill="#212B53"/>
<path transform="translate(1338,240)" d="m0 0 4 2 4 5-1 4-7-9z" fill="#161935"/>
<path transform="translate(117,233)" d="m0 0 4 1 7 8h-3l-8-8z" fill="#1F2750"/>
<path transform="translate(248,186)" d="m0 0 4 2v5l-4 1z" fill="#0E0C1A"/>
<path transform="translate(2008,182)" d="m0 0 2 1-2 4-4 1-1 3-1-4z" fill="#1D254D"/>
<path transform="translate(1561,168)" d="m0 0 3 2v5l-3 3-2-1 2-4v-2h-2v-2z" fill="#27345B"/>
<path transform="translate(1896,1119)" d="m0 0 4 4 3 4-1 2-6-4-1-5z" fill="#253159"/>
<path transform="translate(1609,1064)" d="m0 0 1 3 5 1 1-3h1v5h-8z" fill="#101021"/>
<path transform="translate(1815,966)" d="m0 0h1v6l-2 4h-2v-9z" fill="#1A2049"/>
<path transform="translate(1104,960)" d="m0 0 3 4-2 4-4 2z" fill="#161833"/>
<path transform="translate(1105,956)" d="m0 0 5 4-2 5-3-2z" fill="#1C244A"/>
<path transform="translate(1494,856)" d="m0 0h2l-2 5-3 3h-3l2-4z" fill="#161939"/>
<path transform="translate(437,771)" d="m0 0 6 3 1 3-7 1-1-4z" fill="#1B2248"/>
<path transform="translate(643,635)" d="m0 0h4v2l-9 4-3 2 2-4 3-3z" fill="#131528"/>
<path transform="translate(1447,564)" d="m0 0 5 2 6 7v2l-4-2-7-8z" fill="#2A385F"/>
<path transform="translate(1591,541)" d="m0 0 7 1 1 3-10-1z" fill="#141525"/>
<path transform="translate(1214,540)" d="m0 0 4 1 4 5-4 1-4-5z" fill="#2A385F"/>
<path transform="translate(1452,315)" d="m0 0h1l2 9-3 1-2-4 1-5z" fill="#121324"/>
<path transform="translate(1082,48)" d="m0 0h8l-5 5-2 1z" fill="#141632"/>
<path transform="translate(1174,40)" d="m0 0 5 2 8 8-1 2-12-11z" fill="#171B39"/>
<path transform="translate(784,1257)" d="m0 0 7 1v3l-4 1-3-2z" fill="#13142C"/>
<path transform="translate(1751,1200)" d="m0 0h2l7 9-1 3-8-10z" fill="#1A2045"/>
<path transform="translate(40,1089)" d="m0 0 7 6v1h-6l-2-4z" fill="#222C54"/>
<path transform="translate(1302,1045)" d="m0 0h8v2h2v2h-6z" fill="#1D244D"/>
<path transform="translate(1525,1040)" d="m0 0 4 1 4 6-1 4-2-3v-3l-3-1z" fill="#111120"/>
<path transform="translate(1278,886)" d="m0 0 5 1 1-1h9v1h-7l-1 3-7-2z" fill="#1D244A"/>
<path transform="translate(274,612)" d="m0 0 4 2 3 4-1 4-6-8z" fill="#121222"/>
<path transform="translate(1633,523)" d="m0 0 1 2h3v2l-6 2-1-5z" fill="#111221"/>
<path transform="translate(1044,426)" d="m0 0h3l3 5-4 1-3-2z" fill="#14162F"/>
<path transform="translate(1048,416)" d="m0 0 4 2 5 6-1 3-8-9z" fill="#1C244A"/>
<path transform="translate(1984,409)" d="m0 0h2l5 9v2h-2l-5-8z" fill="#161935"/>
<path transform="translate(1860,331)" d="m0 0 4 2 3 3v3l-4-2-3-3z" fill="#121322"/>
<path transform="translate(618,227)" d="m0 0h2l-2 4-7 6-2-1z" fill="#181C37"/>
<path transform="translate(978,49)" d="m0 0 1 2h3l-1 5h-2l-1 2-1-7z" fill="#1E264D"/>
<path transform="translate(1599,24)" d="m0 0h3v5l-5 1-1-4z" fill="#2A385F"/>
</svg>
